<?xml version="1.0" encoding="UTF-8"?>
<svg id="Layer_2" data-name="Layer 2" xmlns="http://www.w3.org/2000/svg" viewBox="0 0 331.69 331.69">
  <defs>
    <style>
      .cls-1 {
        fill: #213266;
      }

      .cls-1, .cls-2, .cls-3 {
        stroke-width: 0px;
      }

      .cls-2 {
        fill: #213366;
      }

      .cls-3 {
        fill: #fff;
      }
    </style>
  </defs>
  <g id="Layer_1-2" data-name="Layer 1">
    <rect class="cls-1" width="331.69" height="331.69" rx="15" ry="15"/>
    <polygon class="cls-2" points="228.96 158.26 228.96 95.83 102.74 95.83 102.74 235.87 228.96 235.87 228.96 173.44 243.61 173.44 243.61 252.12 88.09 252.12 88.09 79.58 243.61 79.58 243.61 158.26 228.96 158.26"/>
    <path class="cls-3" d="M75.13,65.19v201.32h181.44V65.19H75.13ZM243.61,158.26h-14.65v-62.43h-126.22v140.04h126.22v-62.43h14.65v78.68H88.09V79.58h155.52v78.68ZM194.3,195.53v-23.17h18v45.02h-92.9v-103.06h92.9v23.59h-69.88v57.62h51.88Z"/>
    <polygon class="cls-2" points="142.42 137.91 142.42 195.53 194.3 195.53 194.3 172.36 212.3 172.36 212.3 217.38 119.4 217.38 119.4 114.32 212.3 114.32 212.3 137.91 142.42 137.91"/>
  </g>
</svg>