<?xml version="1.0" encoding="UTF-8"?>
<svg id="Layer_2" data-name="Layer 2" xmlns="http://www.w3.org/2000/svg" viewBox="0 0 830 115">
  <g id="Background">
    <g>
      <rect width="830" height="115" style="fill: #232946; stroke-width: 0px;"/>
      <g>
        <text transform="translate(397.61 68.39)" style="fill: #fff; font-family: LeagueGothic-Regular, &apos;League Gothic&apos;; font-size: 32px;"><tspan x="0" y="0" style="letter-spacing: .02em;">C</tspan><tspan x="11.87" y="0" style="letter-spacing: .02em;">r</tspan><tspan x="20.42" y="0" style="letter-spacing: .03em;">ediGo</tspan></text>
        <g id="Layer_1-2" data-name="Layer 1-2">
          <polygon points="387.71 55.27 387.71 44.09 365.11 44.09 365.11 69.17 387.71 69.17 387.71 57.99 390.34 57.99 390.34 72.08 362.49 72.08 362.49 41.18 390.34 41.18 390.34 55.27 387.71 55.27" style="fill: #232946; stroke-width: 0px;"/>
          <path d="M360.17,38.61v36.05h32.49v-36.05h-32.49ZM390.34,55.27h-2.62v-11.18h-22.6v25.08h22.6v-11.18h2.62v14.09h-27.85v-30.89h27.85v14.09h0ZM381.51,61.95v-4.15h3.22v8.06h-16.63v-18.45h16.63v4.22h-12.51v10.32h9.29,0Z" style="fill: #fff; stroke-width: 0px;"/>
          <polygon points="372.22 51.63 372.22 61.95 381.51 61.95 381.51 57.8 384.73 57.8 384.73 65.86 368.1 65.86 368.1 47.41 384.73 47.41 384.73 51.63 372.22 51.63" style="fill: #232946; stroke-width: 0px;"/>
        </g>
      </g>
    </g>
  </g>
</svg>