<svg xmlns="http://www.w3.org/2000/svg" xmlns:xlink="http://www.w3.org/1999/xlink" xmlns:lucid="lucid" width="1162" height="1122"><g transform="translate(1078.8191578693024 -313.73665034311165)" lucid:page-tab-id="cuM~mTiNkeEN"><path d="M-1500 0H500v1500h-2000z" fill="#fff"/><path d="M-1077.82 320.74a6 6 0 0 1 6-6h1148a6 6 0 0 1 6 6v1108a6 6 0 0 1-6 6h-1148a6 6 0 0 1-6-6z" stroke="#fff" stroke-width="2" fill="#0d1117"/><path d="M-945.93 768.45c0 13.2-14.88 23.88-33.23 23.88-18.44 0-33.32-10.67-33.32-23.88 0-13.2 14.88-23.88 33.32-23.88 18.35 0 33.23 10.67 33.23 23.88zM-1007.7 794.7h57.74c17.8 0 17.8 0 17.8 12.83 0 12.85 0 12.85-17.8 12.85h-57.74c-17.8 0-17.8 0-17.8-12.85 0-12.84 0-12.84 17.8-12.84z" fill="#edf5ff"/><path d="M-1003.77 816.22h49.13v53.02h-49.13v-53.02z" fill="#edf5ff"/><path d="M-1003.77 867.25h22.18v58.44h-22.17v-58.45zM-975.23 867.8h20.6v57.53h-20.6V867.8zM-1025.3 804.28h16.85v51.2h-16.85v-51.2zM-949.3 805h17.03v51.2h-17.03V805z" fill="#edf5ff"/><use xlink:href="#a" transform="matrix(1,0,0,1,-1055.4858245324576,925.5127071601776) translate(61.70052083333333 19.850260416666668)"/><path d="M54.14 768.45c0 13.2-14.88 23.88-33.22 23.88-18.44 0-33.32-10.67-33.32-23.88 0-13.2 14.88-23.88 33.32-23.88 18.34 0 33.22 10.67 33.22 23.88zM-7.63 794.7h57.75c17.78 0 17.78 0 17.78 12.83 0 12.85 0 12.85-17.78 12.85H-7.63c-17.78 0-17.78 0-17.78-12.85 0-12.84 0-12.84 17.77-12.84z" fill="#edf5ff"/><path d="M-3.7 816.22h49.14v53.02H-3.7v-53.02z" fill="#edf5ff"/><path d="M-3.7 867.25h22.18v58.44H-3.7v-58.45zM24.85 867.8h20.6v57.53h-20.6V867.8zM-25.23 804.28h16.85v51.2h-16.85v-51.2zM50.77 805H67.8v51.2H50.78V805z" fill="#edf5ff"/><use xlink:href="#b" transform="matrix(1,0,0,1,-55.41300914591784,925.5127071601776) translate(55.932291666666664 19.850260416666668)"/><path d="M-857.82 350a6 6 0 0 1 6-6h762a6 6 0 0 1 6 6v850a6 6 0 0 1-6 6h-762a6 6 0 0 1-6-6z" stroke="#fff" stroke-width="2" fill="#0d1117"/><use xlink:href="#c" transform="matrix(1,0,0,1,-852.8191578657561,348.9943800893551) translate(259.08224826388886 30.138888888888893)"/><use xlink:href="#d" transform="matrix(1,0,0,1,-852.8191578657561,348.9943800893551) translate(390.37782118055554 30.138888888888893)"/><path d="M-203.82 453.62c0 14.82-35.82 26.83-80 26.83s-80-12-80-26.83c0-14.8 35.82-26.83 80-26.83s80 12 80 26.82z" stroke="#fff" stroke-width="2" fill="#0d1117"/><use xlink:href="#e" transform="matrix(1,0,0,1,-358.8191578657561,431.7943800893551) translate(25.74393229166666 18.416666666666668)"/><use xlink:href="#f" transform="matrix(1,0,0,1,-358.8191578657561,431.7943800893551) translate(80.34028645833334 18.416666666666668)"/><use xlink:href="#g" transform="matrix(1,0,0,1,-358.8191578657561,431.7943800893551) translate(19.45812499999999 34.54947916666667)"/><use xlink:href="#h" transform="matrix(1,0,0,1,-358.8191578657561,431.7943800893551) translate(82.96072916666667 34.54947916666667)"/><path d="M-203.82 568.9c0 14.82-35.82 26.83-80 26.83s-80-12-80-26.83c0-14.8 35.82-26.82 80-26.82s80 12 80 26.82z" stroke="#fff" stroke-width="2" fill="#0d1117"/><use xlink:href="#e" transform="matrix(1,0,0,1,-358.8191578657561,547.075066784634) translate(29.306640625 26.666666666666668)"/><use xlink:href="#i" transform="matrix(1,0,0,1,-358.8191578657561,547.075066784634) translate(83.90299479166667 26.666666666666668)"/><path d="M-25.73 835.03l-2.1-.05-2.5-.15-2.42-.26-2.34-.34-2.25-.43-2.2-.52-2.15-.6-2.1-.68-2.1-.78-2.04-.86-2.02-.95-2.02-1.04-2-1.16-2-1.27-2-1.4-2.03-1.53-2.04-1.68-2.05-1.85-2.08-2.04-2.1-2.26-2.17-2.5-2.2-2.78-2.26-3.12-2.33-3.5-2.38-3.93-2.47-4.47-2.53-5.1-2.62-5.9-2.7-6.82-2.77-8-2.84-9.44-2.9-11.3-2.9-13.7-2.82-16.8-2.63-20.95-2.2-26.67-1.43-34.96.03-48.84.3-40.23-.42-10.02-.56-6.5-.63-4.88-.68-3.9-.7-3.3-.75-2.86-.77-2.54-.8-2.3-.86-2.13-.9-1.98-.92-1.88-1-1.8-1.05-1.72-1.13-1.7-1.22-1.66-1.3-1.66-1.46-1.66-1.6-1.68-1.76-1.73-2-1.8-2.3-1.88-2.68-2.03-3.2-2.2-3.92-2.48-5.02-2.88-6.8-3.52-10.17-4.74-19.04-7.88-3.77-1.43" stroke="#fff" stroke-linejoin="round" fill="none"/><path d="M-25.23 834.56v.95h-.52l.02-.95z" stroke="#fff" stroke-width=".05" fill="#fff"/><path d="M-201.3 454.2l14.98.74-3.3 8.66z" stroke="#fff" fill="#fff"/><path d="M-25.73 835.03l-1.34-.03-1.8-.1-1.75-.2-1.73-.25-1.7-.33-1.7-.4-1.7-.47-1.67-.55-1.7-.62-1.7-.72-1.7-.8-1.76-.92-1.78-1.03-1.82-1.15-1.87-1.3-1.93-1.46-2-1.67-2.1-1.9-2.2-2.14-2.3-2.47-2.46-2.86-2.64-3.33-2.85-3.92-3.12-4.7-3.46-5.73-3.93-7.14-4.56-9.22-5.58-12.6-7.67-19.47-39.2-110.67-5.6-12.6-4.57-9.2-3.9-7.15-3.47-5.73-3.1-4.7-2.86-3.92-2.64-3.33-2.46-2.86-2.3-2.45-2.2-2.15-2.1-1.9-2-1.65-1.94-1.46-1.87-1.3-1.82-1.17-1.76-1.03-1.75-.9-1.73-.82-1.3-.55" stroke="#fff" stroke-linejoin="round" fill="none"/><path d="M-25.23 834.56v.95h-.52l.02-.95z" stroke="#fff" stroke-width=".05" fill="#fff"/><path d="M-201.23 569.2l14.9-1.8-1.8 9.1z" stroke="#fff" fill="#fff"/><path d="M-203.82 684.18c0 16.13-35.82 29.2-80 29.2s-80-13.07-80-29.2c0-16.12 35.82-29.2 80-29.2s80 13.08 80 29.2z" stroke="#fff" stroke-width="2" fill="#0d1117"/><use xlink:href="#e" transform="matrix(1,0,0,1,-358.8191578657561,659.9828580489401) translate(21.430781250000003 22.104166666666668)"/><use xlink:href="#j" transform="matrix(1,0,0,1,-358.8191578657561,659.9828580489401) translate(76.02713541666668 22.104166666666668)"/><use xlink:href="#k" transform="matrix(1,0,0,1,-358.8191578657561,659.9828580489401) translate(23.540156250000003 38.23697916666667)"/><use xlink:href="#l" transform="matrix(1,0,0,1,-358.8191578657561,659.9828580489401) translate(86.78885416666667 38.23697916666667)"/><path d="M-25.73 835.03l-2.7-.06-3.07-.2-2.95-.3-2.86-.42-2.78-.53-2.7-.63-2.64-.75-2.6-.85-2.6-.96-2.55-1.08-2.57-1.2-2.57-1.35-2.6-1.5-2.63-1.66-2.7-1.87-2.76-2.1-2.85-2.37-3-2.7-3.17-3.1-3.4-3.63-3.73-4.32-4.2-5.3-4.97-6.87-6.63-10-32.77-53.34-4.98-6.86-4.2-5.3-3.72-4.33-3.4-3.62-3.17-3.1-3-2.7-2.86-2.38-2.76-2.1-2.7-1.87-2.63-1.67-2.6-1.5-2.56-1.34-2.57-1.2-2.56-1.08-2.58-.96-2.62-.85-2.65-.74-1.3-.3" stroke="#fff" stroke-linejoin="round" fill="none"/><path d="M-25.23 834.56v.95h-.52l.02-.95z" stroke="#fff" stroke-width=".05" fill="#fff"/><path d="M-201.2 684.37l14.7-3-1.06 9.2z" stroke="#fff" fill="#fff"/><path d="M-582.5 453.62c0 14.82-35.8 26.83-80 26.83-44.17 0-80-12-80-26.83 0-14.8 35.83-26.83 80-26.83 44.2 0 80 12 80 26.82z" stroke="#fff" stroke-width="2" fill="#0d1117"/><use xlink:href="#m" transform="matrix(1,0,0,1,-737.4858245324576,431.7943800893551) translate(20.773229166666667 18.416666666666668)"/><use xlink:href="#n" transform="matrix(1,0,0,1,-737.4858245324576,431.7943800893551) translate(55.395625 18.416666666666668)"/><use xlink:href="#o" transform="matrix(1,0,0,1,-737.4858245324576,431.7943800893551) translate(52.44315104166666 34.54947916666667)"/><path d="M-582.5 568.9c0 14.82-35.8 26.83-80 26.83-44.17 0-80-12-80-26.83 0-14.8 35.83-26.82 80-26.82 44.2 0 80 12 80 26.82z" stroke="#fff" stroke-width="2" fill="#0d1117"/><use xlink:href="#p" transform="matrix(1,0,0,1,-737.4858245324576,547.0750667846296) translate(34.01692708333333 26.666666666666668)"/><use xlink:href="#q" transform="matrix(1,0,0,1,-737.4858245324576,547.0750667846296) translate(70.91796875 26.666666666666668)"/><path d="M-582.5 686.55c0 14.82-35.8 26.83-80 26.83-44.17 0-80-12-80-26.83 0-14.8 35.83-26.82 80-26.82 44.2 0 80 12 80 26.82z" stroke="#fff" stroke-width="2" fill="#0d1117"/><use xlink:href="#m" transform="matrix(1,0,0,1,-737.4858245324576,664.7286489108857) translate(31.637369791666664 26.666666666666668)"/><use xlink:href="#r" transform="matrix(1,0,0,1,-737.4858245324576,664.7286489108857) translate(66.259765625 26.666666666666668)"/><path d="M-525.82 1252.03h110v103.94h-110z" fill="url(#s)"/><use xlink:href="#t" transform="matrix(1,0,0,1,-555.8191578657561,1364.9685039370468) translate(31.306423611111114 17.22222222222222)"/><use xlink:href="#u" transform="matrix(1,0,0,1,-555.8191578657561,1364.9685039370468) translate(9.014756944444443 38.732638888888886)"/><use xlink:href="#v" transform="matrix(1,0,0,1,-555.8191578657561,1364.9685039370468) translate(63.19878472222222 38.732638888888886)"/><use xlink:href="#w" transform="matrix(1,0,0,1,-555.8191578657561,1364.9685039370468) translate(132.59114583333331 38.732638888888886)"/><path d="M-390.82 861.88c0 14.82-35.82 26.83-80 26.83s-80-12-80-26.82 35.82-26.83 80-26.83 80 12 80 26.83z" stroke="#fff" stroke-width="2" fill="#0d1117"/><use xlink:href="#x" transform="matrix(1,0,0,1,-545.8191578657561,840.0532814238297) translate(25.18729166666666 18.416666666666668)"/><use xlink:href="#y" transform="matrix(1,0,0,1,-545.8191578657561,840.0532814238297) translate(87.9346875 18.416666666666668)"/><use xlink:href="#z" transform="matrix(1,0,0,1,-545.8191578657561,840.0532814238297) translate(52.05252604166666 34.54947916666667)"/><path d="M-462.63 894.17l.2.45.44 1.24.57 1.72.68 2.5.88 3.8 1.15 6.23 1.58 11.06 2.16 21.8 2.7 47.17 1.45 88.08-1.85 82.88-2.66 42.03-2.07 19.58-1.42 9.5m-20.2 15.4l-.18-.46-.45-1.24-.55-1.72-.7-2.5-.87-3.8-1.15-6.23-1.57-11.05-2.16-21.8-2.7-47.17-1.45-88.07 1.84-82.87 2.66-42.03 2.07-19.58 1.4-9.5" stroke="#fff" fill="none"/><path d="M-462.18 894l-.88.36-.2-.47.88-.38z" stroke="#fff" stroke-width=".05" fill="#fff"/><path d="M-462.42 1246.46l-1-14.96 8.98 2.26z" stroke="#fff" fill="#fff"/><path d="M-478.38 1247.85l-.88.36-.2-.46.88-.37z" stroke="#fff" stroke-width=".05" fill="#fff"/><path d="M-479.2 895.27l1 14.97-9-2.26z" stroke="#fff" fill="#fff"/><path d="M-916.8 834.8l31.57 1.65 191.27 21.86 55.82 5.37 27.9 1.46 18 .18 12.74-.4 9.52-.7 1.93-.24.1.95-1.94.24-9.55.7-12.78.42-18.04-.18-27.94-1.46-55.86-5.36-191.24-21.86-31.52-1.65-14.95-.23v-.95z" stroke="#fff" stroke-width=".05" fill="#fff"/><path d="M-553.42 862.13l-13.37 6.8-1.43-9.15z" fill="#fff"/><path d="M-551.9 861.9l-15.25 7.76-1.65-10.45zm-14.52 6.32l11.48-5.85-12.72-2.02z" stroke="#fff" stroke-width=".05" fill="#fff"/><path d="M-931.75 834.57v.95h-.52v-.96z" fill="#fff"/><path stroke="#fff" stroke-width=".05" fill="#fff"/><path d="M-759.26 457.46l-1.23.65-1.5.88-1.56 1-1.6 1.1-1.68 1.28-1.74 1.44-1.83 1.64-1.93 1.88-2.03 2.17-2.17 2.5-2.33 2.95-2.5 3.46-2.76 4.15-3.02 5-3.38 6.14-3.82 7.7-4.42 9.96-5.27 13.37-6.64 19.17-9.5 31.7-44.9 169.16-6.65 19.17-5.27 13.37-4.4 9.95-3.84 7.7-3.37 6.16-3.03 5-2.75 4.14-2.5 3.47-2.34 2.95-2.17 2.52-2.02 2.17-1.92 1.88-1.83 1.64-1.74 1.44-1.68 1.27-1.6 1.12-1.56.98-1.52.87-1.48.78-1.44.68-1.43.6-1.42.53-1.4.46-1.38.37-1.38.33-1.4.26-1.4.2-1.4.16-1.43.1h-.97" stroke="#fff" stroke-linejoin="round" fill="none"/><path d="M-745.06 454l-12.76 7.88-2.2-9z" stroke="#fff" fill="#fff"/><path d="M-931.75 835.5h-.52v-.94h.52z" stroke="#fff" stroke-width=".05" fill="#fff"/><path d="M-759.55 571.7l-1.42.52-1.9.8-1.9.9-1.96 1-1.97 1.15-2.02 1.28-2.07 1.44-2.13 1.62-2.2 1.83-2.32 2.08-2.42 2.38-2.56 2.73-2.72 3.15-2.9 3.68-3.16 4.34-3.47 5.2-3.85 6.38-4.4 8-5.2 10.5-6.57 14.85-10.2 26-32.16 86.88-6.58 14.85-5.2 10.5-4.4 8-3.84 6.38-3.46 5.2-3.15 4.35-2.9 3.68-2.72 3.15-2.55 2.73-2.43 2.38-2.3 2.1-2.22 1.82-2.14 1.63-2.07 1.44-2.02 1.27-1.98 1.14-1.94 1.02-1.9.9-1.9.8-1.9.7-1.87.62-1.9.52-1.9.45-1.9.37-1.95.3-1.97.2-2.02.13-1.57.03" stroke="#fff" stroke-linejoin="round" fill="none"/><path d="M-745.08 569.18l-13.26 7-1.6-9.13z" stroke="#fff" fill="#fff"/><path d="M-931.75 835.5h-.52v-.94h.52z" stroke="#fff" stroke-width=".05" fill="#fff"/><path d="M-759.76 688.16l-.63.12-3.04.7-2.97.85-2.94.95-2.9 1.07-2.86 1.2-2.86 1.35-2.87 1.5-2.9 1.67-2.92 1.87-3 2.08-3.1 2.35-3.2 2.65-3.37 3.04-3.6 3.52-3.88 4.15-4.34 5.03-5.07 6.4-6.5 8.98-36.84 55.3-5.07 6.4-4.35 5.03-3.9 4.15-3.58 3.5-3.37 3.05-3.2 2.66-3.1 2.34-3 2.1-2.93 1.85-2.9 1.67-2.86 1.5-2.85 1.34-2.87 1.2-2.9 1.08-2.92.95-2.97.83-3.06.72-3.13.6-3.23.47-3.36.34-3.5.22-3.17.07" stroke="#fff" stroke-linejoin="round" fill="none"/><path d="M-745.1 686.7l-13.74 6.03-.9-9.23z" stroke="#fff" fill="#fff"/><path d="M-931.75 835.5h-.52v-.94h.52z" stroke="#fff" stroke-width=".05" fill="#fff"/><path d="M-180.62 917.66c0 14.82-35.82 26.83-80 26.83s-80-12.02-80-26.84c0-14.8 35.82-26.82 80-26.82s80 12 80 26.82z" stroke="#fff" stroke-width="2" fill="#0d1117"/><use xlink:href="#A" transform="matrix(1,0,0,1,-335.61915786575616,895.8347234369945) translate(36.94510416666667 15.666666666666668)"/><use xlink:href="#y" transform="matrix(1,0,0,1,-335.61915786575616,895.8347234369945) translate(76.176875 15.666666666666668)"/><use xlink:href="#B" transform="matrix(1,0,0,1,-335.61915786575616,895.8347234369945) translate(7.2576041666666615 31.799479166666668)"/><use xlink:href="#C" transform="matrix(1,0,0,1,-335.61915786575616,895.8347234369945) translate(56.91255208333333 31.799479166666668)"/><use xlink:href="#h" transform="matrix(1,0,0,1,-335.61915786575616,895.8347234369945) translate(95.16125 31.799479166666668)"/><path d="M-163.3 916.3l3-.57 3.28-.78 3.2-.9 3.08-1 3.03-1.12 2.98-1.26 2.98-1.4 3-1.56 3.02-1.74 3.1-1.98 3.26-2.26 3.48-2.63 3.83-3.2 4.5-4.06 6.2-6.07 24.04-24.9 4.5-4.08 3.84-3.18 3.47-2.64 3.27-2.27 3.1-1.96 3.04-1.75 3-1.57 2.97-1.4 3-1.26 3.02-1.13 3.1-1 3.17-.9 3.3-.77 3.44-.65 3.62-.54 3.82-.4 4.07-.25 3.87-.08" stroke="#fff" stroke-linejoin="round" fill="none"/><path d="M-178 917.53l13.83-5.8.77 9.23z" stroke="#fff" fill="#fff"/><path d="M-25.23 835.5h-.5v-.94h.5z" stroke="#fff" stroke-width=".05" fill="#fff"/><path d="M-600.9 966.3c0 14.8-35.8 26.82-80 26.82-44.17 0-80-12.02-80-26.83 0-14.83 35.83-26.84 80-26.84 44.2 0 80 12 80 26.83z" stroke="#fff" stroke-width="2" fill="#0d1117"/><use xlink:href="#D" transform="matrix(1,0,0,1,-755.8858245324575,944.4619822442921) translate(21.339635416666667 18.416666666666668)"/><use xlink:href="#E" transform="matrix(1,0,0,1,-755.8858245324575,944.4619822442921) translate(72.08833333333334 18.416666666666668)"/><use xlink:href="#F" transform="matrix(1,0,0,1,-755.8858245324575,944.4619822442921) translate(84.42557291666665 18.416666666666668)"/><use xlink:href="#G" transform="matrix(1,0,0,1,-755.8858245324575,944.4619822442921) translate(28.21463541666666 34.54947916666667)"/><use xlink:href="#H" transform="matrix(1,0,0,1,-755.8858245324575,944.4619822442921) translate(68.85265625 34.54947916666667)"/><path d="M-778.14 964.54l-2.08-.5-2.73-.75-2.68-.88-2.64-1-2.63-1.1-2.6-1.22-2.64-1.37-2.64-1.53-2.7-1.7-2.73-1.9-2.83-2.16-2.94-2.43-3.1-2.77-3.3-3.24-3.58-3.84-4.04-4.68-4.76-6.03-6.37-8.8-30.26-44.77-4.76-6.04-4.04-4.68-3.6-3.82-3.3-3.24-3.08-2.78-2.94-2.44-2.82-2.14-2.75-1.9-2.67-1.7-2.64-1.54-2.64-1.37-2.6-1.23-2.64-1.1-2.64-1-2.68-.86-2.73-.76-2.8-.66-2.87-.55-2.97-.43-3.1-.33-3.2-.2-2.9-.05" stroke="#fff" stroke-linejoin="round" fill="none"/><path d="M-763.5 966.1l-14.67 3.1 1-9.22z" stroke="#fff" fill="#fff"/><path d="M-931.75 834.56v.95h-.52v-.94z" stroke="#fff" stroke-width=".05" fill="#fff"/><path d="M-599.38 966.28l4.85-.1m4.86-.1l9.23-.2.48-.02m4.85-.3l9.7-.6m4.82-.46l9.66-1m4.8-.7l8.1-1.2 1.5-.28m4.78-.9l5.15-1 4.37-1m4.73-1.12l1.97-.46 7.4-2.07m4.67-1.34l9.24-3m4.6-1.53l9.16-3.26m4.58-1.63l9.15-3.25m4.58-1.63l9.15-3.26m4.57-1.63l9.16-3.26m4.63-1.44l8.67-2.42.7-.15m4.73-1.1l5.63-1.33 3.85-.74m4.77-.9l2.8-.54 6.8-1m4.8-.7l.78-.12 8.88-.93m4.83-.52l.2-.02 9.5-.6m4.85-.3l1.8-.1 3.05-.07" stroke="#fff" stroke-linejoin="round" fill="none"/><path d="M-599.36 966.75h-.54V965.8h.52z" stroke="#fff" stroke-width=".05" fill="#fff"/><path d="M-343.24 917.7l-14.16 4.92-.2-9.27z" stroke="#fff" fill="#fff"/><path d="M-470.43 817.67h-.94l-.03-5.08.95-.02zm-.05-10.17h-.94l-.06-10.16h.95zm-.07-15.25h-.95l-.05-10.16h.95zm-.12-23.4l.04 8.15h-.95l-.04-8.14-.08-2 .95-.03zm-.28-7.1l-.95.03-.4-10.15.95-.04zm-.6-15.24l-.96.05-.4-10.16.94-.05zm-.64-15.25l-.93.08-.84-10.13.94-.08zm-1.94-23.54l.7 8.36-.95.08-.68-8.33-.22-1.77.94-.12zm-.85-6.83l-.94.12-1.26-10.1.94-.12zm-2.06-15.12l-.94.15-1.68-10.02.93-.16zm-4.3-22.4l1.58 7.38-.93.2-1.57-7.37-.65-2.54.92-.23zm-7.74-26.1l1.38 4-.9.3-1.37-3.96-2.18-5.54.88-.35zm-7.77-17.6l2.58 5.22.97 2.16-.87.38-.95-2.13-2.57-5.17-.96-1.76.83-.46zm-7.73-12.8l2.58 3.87 1.65 2.73-.8.5-1.66-2.72-2.55-3.84-1.37-1.9.76-.57zm-10.35-12.58l2.6 2.78 2.6 3 .66.83-.73.6-.65-.83-2.56-2.97-2.6-2.75-.96-.95.66-.68zm-10.74-9.3l2.75 2.08 2.7 2.24.6.5-.65.72-.56-.5-2.68-2.22-2.7-2.07-2.04-1.4.55-.78zm-14.76-8.53l3.12 1.47 3.03 1.6 2.25 1.3-.48.82-2.24-1.3-3-1.55-3.08-1.46-.67-.27.37-.88zm-13.8-4.78l3.67 1.03 3.53 1.13 1.18.44-.33.9-1.15-.44-3.48-1.13-3.64-1.02-1.4-.33.22-.92zm-12.3-2.33l4.33.64 1.56.3-.18.93-1.54-.3-4.3-.63-4.18-.43.1-.95zm-9.6-.8l.3.02-.07.95h-.26l-4.8-.1.03-.96z" stroke="#fff" stroke-width=".05" fill="#fff"/><path d="M-580.96 568.44l-.02.95-.52-.02v-.94z" fill="#fff"/><path stroke="#fff" stroke-width=".05" fill="#fff"/><path d="M-470.83 832.43l-4.7-14.24 9.27-.05z" fill="#fff"/><path d="M-470.82 833.97l-5.37-16.25 10.6-.05zm-4.06-15.3l4.05 12.23 3.92-12.27z" stroke="#fff" stroke-width=".05" fill="#fff"/><use xlink:href="#I" transform="matrix(1,0,0,1,-526.8168730719299,644.2746320667177) translate(0 12.916666666666668)"/><path d="M-630.5 807.28c0 19.8-39.16 35.83-87.5 35.83-48.3 0-87.5-16.03-87.5-35.82 0-19.78 39.2-35.82 87.5-35.82 48.34 0 87.5 16.04 87.5 35.82z" stroke="#fff" stroke-width="2" fill="#0d1117"/><use xlink:href="#e" transform="matrix(1,0,0,1,-800.4858245324576,776.4619822442531) translate(35.93598958333333 28.416666666666668)"/><use xlink:href="#J" transform="matrix(1,0,0,1,-800.4858245324576,776.4619822442531) translate(90.53234375 28.416666666666668)"/><use xlink:href="#K" transform="matrix(1,0,0,1,-800.4858245324576,776.4619822442531) translate(8.960078125000004 44.54947916666667)"/><use xlink:href="#L" transform="matrix(1,0,0,1,-800.4858245324576,776.4619822442531) translate(48.44575520833334 44.54947916666667)"/><use xlink:href="#M" transform="matrix(1,0,0,1,-800.4858245324576,776.4619822442531) translate(106.23221354166668 44.54947916666667)"/><path d="M-822.85 808l-4.9.52-5.45.8-5.02.96-4.77 1.12-4.67 1.3-4.88 1.6-5.65 2.1-28 11.63-4.88 1.58-4.7 1.32-4.75 1.12-5.02.96-5.46.8-6.1.64-6.97.43-7.7.16" stroke="#fff" stroke-linejoin="round" fill="none"/><path d="M-808.1 807.36l-14.05 5.26-.4-9.26z" stroke="#fff" fill="#fff"/><path d="M-931.75 835.5h-.52v-.94h.52zM-556.68 861.1l2.34.22 2.04.07-.03.94-2.07-.07-2.4-.23-.16-.02.15-.94zm-12.03-4l1.9 1 1.92.86 1.95.7 1.7.52-.28.9-1.73-.5-2-.74-1.98-.88-1.98-1.04-.83-.5.48-.82zm-8.47-6.48l2.34 2.15 1.6 1.27-.6.74-1.6-1.3-2.4-2.18-2.72-2.83.68-.66zm-5.43-6.42l-.76.57-1.67-2.2h1.2zm-13.44-17.77h-1.07l.67-.52zm-7.43-8.56l2.77 2.87 1.35 1.6-.73.62-1.33-1.58-2.73-2.83-2.3-2.1.64-.7zm-8.65-6.63l2 1.22.65.46-.55.77-.62-.44-1.95-1.2-1.3-.68.44-.84z" stroke="#fff" stroke-width=".05" fill="#fff"/><path d="M-615.06 815.4l-12.85-7.75 14.94-1.28z" fill="#fff"/><path d="M-614.75 816.14l-14.66-8.84 17.05-1.46zM-626.4 808l11.02 6.65 1.8-7.75z" stroke="#fff" stroke-width=".05" fill="#fff"/><path d="M-551.8 861.4l-.02.56.02.4h-.53v-.96z" fill="#fff"/><path stroke="#fff" stroke-width=".05" fill="#fff"/><use xlink:href="#I" transform="matrix(1,0,0,1,-632.6485793320527,826.4265731668268) translate(0 12.916666666666668)"/><path d="M-145.95 790.4c0 19.78-39.18 35.82-87.5 35.82-48.33 0-87.5-16.04-87.5-35.82s39.17-35.82 87.5-35.82c48.32 0 87.5 16.04 87.5 35.82z" stroke="#fff" stroke-width="2" fill="#0d1117"/><use xlink:href="#N" transform="matrix(1,0,0,1,-315.95249119908965,759.5794245724726) translate(17.57661458333333 28.416666666666668)"/><use xlink:href="#G" transform="matrix(1,0,0,1,-315.95249119908965,759.5794245724726) translate(54.24328125 28.416666666666668)"/><use xlink:href="#O" transform="matrix(1,0,0,1,-315.95249119908965,759.5794245724726) translate(94.88130208333334 28.416666666666668)"/><use xlink:href="#P" transform="matrix(1,0,0,1,-315.95249119908965,759.5794245724726) translate(61.10200520833333 44.54947916666667)"/><path d="M-384.4 861.7l-.64.16-1.52.27-1.6.17-1.14.04-.04-.95 1.13-.05 1.5-.16 1.46-.27.6-.15zm12.45-7.66l-1 1.03-1.7 1.53-1.57 1.24-1.52 1.03-1.48.86-.54.26-.42-.86.52-.25 1.4-.83 1.48-1 1.53-1.2 1.64-1.48.96-1.02zm8.52-11.94l-.14.28-3.07 4.97-2.13 2.94-.77-.56 2.1-2.92 3.04-4.9.12-.24zm2.17-4.34l-.85-.43 1.57-3.17h1.06zm10.9-21.67l-1 1.93h-1.07l1.24-2.38zm7.35-12.5l-1.34 1.86-3.04 4.9-.73 1.42-.85-.44.75-1.44 3.07-4.97 1.35-1.87zm6.4-7.12l-1.57 1.4-1.8 1.9-.68-.67 1.82-1.9 1.6-1.42z" stroke="#fff" stroke-width=".05" fill="#fff"/><path d="M-335.13 800.4l-3.3-8.65 14.97-.77z" fill="#fff"/><path d="M-335.34 801.2l-3.78-9.9 17.1-.87zm-2.43-9l2.85 7.43 10.02-8.1z" stroke="#fff" stroke-width=".05" fill="#fff"/><path d="M-389.3 862.36h-.53v-.97h.52z" fill="#fff"/><path stroke="#fff" stroke-width=".05" fill="#fff"/><g><use xlink:href="#Q" transform="matrix(1,0,0,1,-401.81975982890447,818.0284076840021) translate(0 12.916666666666668)"/></g><path d="M-180.62 1107.57c0 14.82-35.82 26.83-80 26.83s-80-12.02-80-26.83c0-14.82 35.82-26.83 80-26.83s80 12 80 26.83z" stroke="#fff" stroke-width="2" fill="#0d1117"/><g><use xlink:href="#m" transform="matrix(1,0,0,1,-335.61915786575616,1085.7426689395709) translate(11.458333333333329 26.666666666666668)"/><use xlink:href="#B" transform="matrix(1,0,0,1,-335.61915786575616,1085.7426689395709) translate(46.080729166666664 26.666666666666668)"/><use xlink:href="#P" transform="matrix(1,0,0,1,-335.61915786575616,1085.7426689395709) translate(95.73567708333333 26.666666666666668)"/></g><path d="M-260.14 1079.24h-.95v-4.9h.96zm0-9.78h-.95v-9.78h.96zm0-14.67h-.95v-9.8h.96zm0-14.68h-.95v-8.85h.96zm0-29.34h-.95v-9.8h.96zm0-14.68h-.95v-9.78h.96zm0-14.67h-.95v-9.78h.96zm0-14.67h-.95v-4.9h.96z" stroke="#fff" stroke-width=".05" fill="#fff"/><path d="M-260.14 1079.76l-.47-.02h-.5v-.5h.96z" fill="#fff"/><path stroke="#fff" stroke-width=".05" fill="#fff"/><path d="M-255.98 961.37h-9.27l4.63-14.26z" fill="#fff"/><path d="M-255.33 961.85h-10.58l5.28-16.28zm-9.27-.95h7.96l-3.98-12.26z" stroke="#fff" stroke-width=".05" fill="#fff"/><g><use xlink:href="#R" transform="matrix(1,0,0,1,-301.21811619908954,1015.1335937500002) translate(0 12.916666666666668)"/></g><path d="M-362.67 1106.23l4.7.3-.05.94-4.73-.3-.32-.03.1-.94zm-10.88-1.12l5.56.58-.1.95-5.56-.58-4.47-.65.14-.94zm-10.97-1.6l1.54.24-.14.94-1.56-.23-8.4-1.58.2-.94zm-22.33-4.7l9.04 2.1-.22.93-9.06-2.1-.8-.22.27-.9zm-11.4-3.15l5.77 1.6-.25.9-5.8-1.6-3.9-1.25.3-.9zm-11.6-3.75l2.92.94-.3.9-2.93-.94-6.6-2.44.34-.9zm-11.8-4.36l.5.18-.34.9-.5-.2-8.82-3.7.36-.86zm-13.42-5.68l-.4.86-9.14-4.28.4-.86zm-13.63-6.52l-.44.84-8.95-4.66.45-.84zm-13.33-7.13l-.47.83-8.75-5.03.47-.82zm-13-7.7l-.52.8-8.53-5.38.5-.8zm-12.7-8.22l-.53.78-8.3-5.74.54-.78zm-12.33-8.72l-.58.76-8.05-6.1.6-.75zm-29.17-23.75h-1.42l-1.22-1.08.63-.7zm-7.08-6.34l1.3 1.18-.63.7-1.33-1.2-5.96-5.8.66-.68zm-12.35-12.03l2.78 2.7-.66.7-2.8-2.74-4.26-4.52.7-.66zm-11.53-12.23l3.82 4.05-.7.65-3.82-4.06-2.97-3.42.72-.62zm-10.4-11.98l4.15 4.77-.72.6-4.15-4.77-2.36-2.96.75-.6zm-5.48-6.9l-.74.6-3.14-3.94.74-.6z" stroke="#fff" stroke-width=".05" fill="#fff"/><path d="M-599.2 966.4l-.7.57v-1.4z" fill="#fff"/><path stroke="#fff" stroke-width=".05" fill="#fff"/><path d="M-343.23 1107.5l-14.42 4.14.32-9.26z" fill="#fff"/><path d="M-341.7 1107.57l-16.45 4.7.37-10.56zm-15.46 3.44l12.4-3.54-12.12-4.4z" stroke="#fff" stroke-width=".05" fill="#fff"/><g><use xlink:href="#R" transform="matrix(1,0,0,1,-581.2943297618522,1019.8087039868174) translate(0 12.916666666666668)"/></g><path d="M-600.9 1137.76c0 14.8-35.8 26.82-80 26.82-44.17 0-80-12-80-26.82s35.83-26.83 80-26.83c44.2 0 80 12 80 26.83z" stroke="#fff" stroke-width="2" fill="#0d1117"/><g><use xlink:href="#e" transform="matrix(1,0,0,1,-755.8858245324575,1115.928648910912) translate(36.617838541666664 26.666666666666668)"/><use xlink:href="#S" transform="matrix(1,0,0,1,-755.8858245324575,1115.928648910912) translate(91.21419270833334 26.666666666666668)"/></g><path d="M-762.4 1137.74l-.98-.02-1.46-.1-1.43-.14-1.43-.2-1.4-.28-1.4-.33-1.4-.4-1.4-.44-1.42-.53-1.43-.6-1.45-.68-1.47-.77-1.5-.87-1.55-1-1.6-1.1-1.65-1.25-1.72-1.42-1.78-1.6-1.9-1.86-2-2.12-2.1-2.47-2.3-2.87-2.45-3.4-2.68-4.03-2.97-4.9-3.3-6.03-3.78-7.62-4.43-9.97-5.43-13.77-7.37-21.26-42.37-139.86-5.43-13.78-4.43-9.97-3.77-7.63-3.3-6.03-2.97-4.9-2.68-4.04-2.47-3.38-2.26-2.88-2.12-2.46-2-2.13-1.9-1.85-1.78-1.62-1.72-1.42-1.65-1.25-1.6-1.1-1.54-.98-1.5-.87-1.4-.73" stroke="#fff" stroke-linejoin="round" fill="none"/><path d="M-761.87 1137.28l-.02.56.03.4-.54-.02v-.95z" stroke="#fff" stroke-width=".05" fill="#fff"/><path d="M-930.7 835.4l14.96-1.17-2.16 9z" stroke="#fff" fill="#fff"/><path d="M-680.4 1093.54h-.96v-4.7h.95zm0-9.42h-.96v-9.42h.95zm0-14.13h-.96v-9.43h.95zm0-14.14h-.96V1054h.95zm0-18h-.96v-5.56h.95zm0-10.27h-.96v-9.43h.95zm0-14.14h-.96v-9.42h.95zm0-14.13h-.96v-4.72h.95z" stroke="#fff" stroke-width=".05" fill="#fff"/><path d="M-680.9 1108.3l-4.62-14.26h9.27z" fill="#fff"/><path d="M-680.9 1109.85l-5.27-16.28h10.57zm-3.97-15.33l3.98 12.25 4-12.25z" stroke="#fff" stroke-width=".05" fill="#fff"/><path d="M-680.9 994.1h.5v.53h-.96v-.53z" fill="#fff"/><path stroke="#fff" stroke-width=".05" fill="#fff"/><g><use xlink:href="#R" transform="matrix(1,0,0,1,-721.484782865791,1037.863460930648) translate(0 12.916666666666668)"/></g><path d="M-891.2 1000.08c0 19.8-39.16 35.83-87.5 35.83-48.3 0-87.5-16.03-87.5-35.82 0-19.78 39.2-35.82 87.5-35.82 48.34 0 87.5 16.04 87.5 35.82z" stroke="#fff" stroke-width="2" fill="#0d1117"/><g><use xlink:href="#N" transform="matrix(1,0,0,1,-1061.188898892377,969.2619822443462) translate(17.57661458333333 28.416666666666668)"/><use xlink:href="#G" transform="matrix(1,0,0,1,-1061.188898892377,969.2619822443462) translate(54.24328125 28.416666666666668)"/><use xlink:href="#O" transform="matrix(1,0,0,1,-1061.188898892377,969.2619822443462) translate(94.88130208333334 28.416666666666668)"/><use xlink:href="#P" transform="matrix(1,0,0,1,-1061.188898892377,969.2619822443462) translate(61.10200520833333 44.54947916666667)"/></g><defs><path fill="#fff" d="M750 21c-371 0-615-218-615-544v-967h305v942c0 174 123 299 310 299s309-125 309-299v-942h306v967c0 326-247 544-615 544" id="T"/><path fill="#fff" d="M572 22C302 22 117-98 78-306l279-48c29 105 101 156 224 156 114 0 185-48 185-115 0-118-228-130-337-155-215-49-322-150-322-317 0-215 187-347 470-347 265 0 424 116 466 298l-266 47c-24-76-87-130-196-130-98 0-174 46-174 113 0 56 38 95 144 117l201 40c216 44 320 143 320 302 0 220-207 367-500 367" id="U"/><path fill="#fff" d="M633 22C291 22 81-200 81-553c0-345 210-579 537-579 292 0 525 185 525 567v84H378c7 183 109 277 260 277 105 0 184-46 216-132l272 51C1071-99 893 22 633 22zM380-669h474c-15-146-94-237-233-237-143 0-229 99-241 237" id="V"/><path fill="#fff" d="M128 0v-1118h290v195h12c54-169 184-238 367-200v268c-27-8-86-15-130-15-138 0-239 95-239 234V0H128" id="W"/><g id="a"><use transform="matrix(0.006510416666666667,0,0,0.006510416666666667,0,0)" xlink:href="#T"/><use transform="matrix(0.006510416666666667,0,0,0.006510416666666667,9.759114583333334,0)" xlink:href="#U"/><use transform="matrix(0.006510416666666667,0,0,0.006510416666666667,17.2265625,0)" xlink:href="#V"/><use transform="matrix(0.006510416666666667,0,0,0.006510416666666667,25.169270833333336,0)" xlink:href="#W"/></g><path fill="#fff" d="M49 0l509-1490h400L1480 0h-339l-115-346H497L386 0H49zm524-585h374c-75-213-124-402-192-666-66 268-110 453-182 666" id="X"/><path fill="#fff" d="M537 19C279 19 81-185 81-557c0-382 206-575 454-575 190 0 278 113 318 202h10v-560h300V0H868v-179h-15C812-89 719 19 537 19zm92-241c153 0 240-134 240-336 0-203-86-334-240-334-158 0-240 138-240 334 0 197 84 336 240 336" id="Y"/><path fill="#fff" d="M128 0v-1118h278l12 217c60-163 185-234 319-234 143 0 236 81 288 251 63-172 205-251 359-251 205 0 357 138 357 381V0h-301v-697c0-126-76-187-177-187-114 0-184 79-184 196V0H789v-705c0-109-72-179-174-179-106 0-187 74-187 208V0H128" id="Z"/><path fill="#fff" d="M128 0v-1118h300V0H128zm150-1264c-91 0-165-68-165-154 0-85 74-154 165-154 90 0 165 69 165 154 0 86-75 154-165 154" id="aa"/><path fill="#fff" d="M428-647V0H128v-1118h283l4 231c63-156 176-245 348-245 232 0 384 159 384 421V0H847v-659c0-139-76-222-202-222-128 0-217 86-217 234" id="ab"/><g id="b"><use transform="matrix(0.006510416666666667,0,0,0.006510416666666667,0,0)" xlink:href="#X"/><use transform="matrix(0.006510416666666667,0,0,0.006510416666666667,9.6484375,0)" xlink:href="#Y"/><use transform="matrix(0.006510416666666667,0,0,0.006510416666666667,18.053385416666668,0)" xlink:href="#Z"/><use transform="matrix(0.006510416666666667,0,0,0.006510416666666667,30.221354166666668,0)" xlink:href="#aa"/><use transform="matrix(0.006510416666666667,0,0,0.006510416666666667,33.83463541666667,0)" xlink:href="#ab"/></g><path fill="#fff" d="M786 20C389 20 94-260 94-744c0-487 299-766 692-766 339 0 597 194 641 529h-309c-28-162-156-258-326-258-233 0-388 179-388 495 0 323 157 493 387 493 170 0 298-97 328-259h309c-34 277-266 530-642 530" id="ac"/><path fill="#fff" d="M795 20C377 20 94-272 94-743c0-483 302-767 694-767 335 0 593 206 635 500h-310c-42-142-154-229-320-229-230 0-389 177-389 493s154 495 393 495c212 0 340-120 345-311H818v-232h620v186c0 391-269 628-643 628" id="ad"/><path fill="#fff" d="M628 22C291 22 81-210 81-554c0-346 210-578 547-578 336 0 547 232 547 578 0 344-211 576-547 576zm0-236c160 0 242-146 242-341 0-197-82-341-242-341S387-753 387-555c0 195 81 341 241 341" id="ae"/><g id="c"><use transform="matrix(0.015190972222222224,0,0,0.015190972222222224,0,0)" xlink:href="#ac"/><use transform="matrix(0.015190972222222224,0,0,0.015190972222222224,23.014322916666668,0)" xlink:href="#W"/><use transform="matrix(0.015190972222222224,0,0,0.015190972222222224,34.92404513888889,0)" xlink:href="#V"/><use transform="matrix(0.015190972222222224,0,0,0.015190972222222224,53.45703125000001,0)" xlink:href="#Y"/><use transform="matrix(0.015190972222222224,0,0,0.015190972222222224,73.0685763888889,0)" xlink:href="#aa"/><use transform="matrix(0.015190972222222224,0,0,0.015190972222222224,81.49956597222223,0)" xlink:href="#ad"/><use transform="matrix(0.015190972222222224,0,0,0.015190972222222224,104.84809027777779,0)" xlink:href="#ae"/></g><path fill="#fff" d="M681 22C323 22 94-145 85-462h297c10 151 131 226 296 226 163 0 271-77 271-190 0-102-95-149-257-189l-164-41c-252-61-403-188-403-405 0-269 236-449 560-449 330 0 546 183 551 445H941c-11-119-106-188-259-188-156 0-244 72-244 172-3 156 226 185 373 221 250 61 445 186 445 436 0 271-213 446-575 446" id="af"/><path fill="#fff" d="M120 396l69-226c123 42 245 23 254-107l8-60L31-1118h319c87 288 199 559 259 872 72-308 185-583 277-872h315L726 132c-68 181-186 294-410 294-79 0-153-13-196-30" id="ag"/><path fill="#fff" d="M683-1118v229H474v562c0 71 29 104 102 104 23 0 73-7 95-13l43 225C647 9 580 16 520 16 296 16 174-96 174-301v-588H20v-229h154v-266h300v266h209" id="ah"/><g id="d"><use transform="matrix(0.015190972222222224,0,0,0.015190972222222224,0,0)" xlink:href="#af"/><use transform="matrix(0.015190972222222224,0,0,0.015190972222222224,20.371093750000004,0)" xlink:href="#ag"/><use transform="matrix(0.015190972222222224,0,0,0.015190972222222224,39.10156250000001,0)" xlink:href="#U"/><use transform="matrix(0.015190972222222224,0,0,0.015190972222222224,56.5256076388889,0)" xlink:href="#ah"/><use transform="matrix(0.015190972222222224,0,0,0.015190972222222224,67.61501736111113,0)" xlink:href="#V"/><use transform="matrix(0.015190972222222224,0,0,0.015190972222222224,86.14800347222224,0)" xlink:href="#Z"/></g><path fill="#fff" d="M180 0v-1490h270l367 940c28 72 75 218 110 339 35-117 81-264 110-339l362-940h271V0h-187c2-448-5-837 7-1287-157 497-311 829-483 1287H842C666-458 514-784 354-1284c12 438 5 843 7 1284H180" id="ai"/><path fill="#fff" d="M471 26C259 26 90-98 90-318c0-256 228-303 435-329 202-27 287-16 287-108 0-139-79-219-234-219-161 0-248 86-283 164l-173-57c86-203 278-265 451-265 150 0 419 46 419 395V0H815v-152h-12C765-73 660 26 471 26zm31-159c199 0 310-134 310-271v-155c-30 35-226 55-295 64-131 17-246 59-246 186 0 116 97 176 231 176" id="aj"/><path fill="#fff" d="M338-670V0H158v-1118h173l1 207c72-158 192-221 342-221 226 0 378 139 378 422V0H872v-695c0-172-96-275-252-275-161 0-282 109-282 300" id="ak"/><path fill="#fff" d="M611 442c-248 0-391-105-460-228l146-94c47 65 117 165 314 165 178 0 307-82 307-266v-224h-17C863-141 792-18 576-18c-268 0-472-195-472-546 0-346 197-568 476-568 216 0 288 133 326 193h17v-179h175V29c0 289-215 413-487 413zm-5-620c203 0 314-146 314-390 0-237-108-403-314-403-213 0-319 180-319 403 0 230 109 390 319 390" id="al"/><path fill="#fff" d="M628 24c-324 0-524-230-524-574 0-343 198-582 503-582 237 0 487 146 487 559v75H286c9 234 145 362 343 362 132 0 231-58 273-172l174 48C1024-91 857 24 628 24zM287-650h624c-17-190-120-322-304-322-192 0-309 151-320 322" id="am"/><g id="e"><use transform="matrix(0.006510416666666667,0,0,0.006510416666666667,0,0)" xlink:href="#ai"/><use transform="matrix(0.006510416666666667,0,0,0.006510416666666667,12.044270833333334,0)" xlink:href="#aj"/><use transform="matrix(0.006510416666666667,0,0,0.006510416666666667,19.53125,0)" xlink:href="#ak"/><use transform="matrix(0.006510416666666667,0,0,0.006510416666666667,27.408854166666668,0)" xlink:href="#aj"/><use transform="matrix(0.006510416666666667,0,0,0.006510416666666667,34.895833333333336,0)" xlink:href="#al"/><use transform="matrix(0.006510416666666667,0,0,0.006510416666666667,43.07291666666667,0)" xlink:href="#am"/></g><path fill="#fff" d="M789 20c-398 0-667-293-667-764 0-473 273-766 655-766 315 0 558 198 612 487h-196c-61-191-204-311-415-311-262 0-471 207-471 590 0 380 208 588 482 588 249 0 420-165 425-427H828v-166h572v163c0 370-256 606-611 606" id="an"/><path fill="#fff" d="M158 0v-1118h175l1 205c55-151 181-225 313-225 147 0 245 90 285 228 53-141 190-228 352-228 194 0 352 125 352 384V0h-181v-749c0-161-105-225-225-225-151 0-243 103-243 244V0H807v-767c0-124-93-207-219-207-131 0-250 92-250 270V0H158" id="ao"/><path fill="#fff" d="M538 24C308 24 148-78 108-271l171-41c32 123 123 178 257 178 156 0 256-77 256-169 0-77-54-128-164-154l-186-44c-203-48-300-148-300-305 0-192 176-326 414-326 230 0 351 112 402 269l-163 42c-31-80-94-158-238-158-133 0-233 69-233 162 0 83 57 129 188 160l169 40c203 48 298 149 298 302 0 196-179 339-441 339" id="ap"/><g id="f"><use transform="matrix(0.006510416666666667,0,0,0.006510416666666667,0,0)" xlink:href="#an"/><use transform="matrix(0.006510416666666667,0,0,0.006510416666666667,9.947916666666668,0)" xlink:href="#aj"/><use transform="matrix(0.006510416666666667,0,0,0.006510416666666667,17.434895833333336,0)" xlink:href="#ao"/><use transform="matrix(0.006510416666666667,0,0,0.006510416666666667,29.114583333333336,0)" xlink:href="#am"/><use transform="matrix(0.006510416666666667,0,0,0.006510416666666667,36.888020833333336,0)" xlink:href="#ap"/></g><path fill="#fff" d="M180 0v-1490h510c348 0 508 209 508 474 0 266-160 477-507 477H370V0H180zm190-706h312c236 0 327-133 327-310 0-176-91-307-329-307H370v617" id="aq"/><path fill="#fff" d="M338-1490V0H158v-1490h180" id="ar"/><path fill="#fff" d="M598-1118v154H368v674c0 100 37 144 132 144 23 0 62-6 92-12L629-6c-37 13-88 20-134 20-193 0-307-107-307-290v-688H20v-154h168v-266h180v266h230" id="as"/><path fill="#fff" d="M678-1118v154H420V0H240v-964H20v-154h220v-149c0-194 155-293 318-293 85 0 141 18 168 30l-50 154c-19-6-47-17-97-17-111 0-159 58-159 166v109h258" id="at"/><path fill="#fff" d="M613 24c-304 0-509-231-509-576 0-350 205-580 509-580 305 0 511 230 511 580 0 345-206 576-511 576zm0-161c226 0 329-195 329-415 0-222-103-419-329-419-223 0-326 196-326 419 0 220 103 415 326 415" id="au"/><path fill="#fff" d="M158 0v-1118h174v172h12c41-113 157-188 290-188 26 0 70 2 91 3v181c-11-2-60-10-108-10-161 0-279 109-279 260V0H158" id="av"/><g id="g"><use transform="matrix(0.006510416666666667,0,0,0.006510416666666667,0,0)" xlink:href="#aq"/><use transform="matrix(0.006510416666666667,0,0,0.006510416666666667,8.515625,0)" xlink:href="#ar"/><use transform="matrix(0.006510416666666667,0,0,0.006510416666666667,11.744791666666668,0)" xlink:href="#aj"/><use transform="matrix(0.006510416666666667,0,0,0.006510416666666667,19.231770833333336,0)" xlink:href="#as"/><use transform="matrix(0.006510416666666667,0,0,0.006510416666666667,23.26822916666667,0)" xlink:href="#at"/><use transform="matrix(0.006510416666666667,0,0,0.006510416666666667,27.812500000000007,0)" xlink:href="#au"/><use transform="matrix(0.006510416666666667,0,0,0.006510416666666667,35.80729166666667,0)" xlink:href="#av"/><use transform="matrix(0.006510416666666667,0,0,0.006510416666666667,41.03515625000001,0)" xlink:href="#ao"/><use transform="matrix(0.006510416666666667,0,0,0.006510416666666667,52.71484375000001,0)" xlink:href="#ap"/></g><path fill="#fff" d="M218-607c0-325 108-727 258-974h175c-155 315-250 682-250 974 0 265 78 531 250 886H476C306-10 218-315 218-607" id="aw"/><path fill="#fff" d="M783 20c-382 0-661-292-661-764 0-473 279-766 661-766 302 0 548 182 601 489h-190c-42-204-217-313-411-313-268 0-476 208-476 590 0 381 209 588 476 588 195 0 369-110 411-313h190c-52 303-296 489-601 489" id="ax"/><path fill="#fff" d="M180 0v-1490h510c348 0 508 194 508 460 0 198-88 351-276 417L1256 0h-220L726-579c-117 2-238 0-356 1V0H180zm190-747h312c235 0 327-108 327-283 0-177-92-293-329-293H370v576" id="ay"/><path fill="#fff" d="M763 24c-353 0-583-224-583-531v-983h190v968c0 214 149 370 393 370 243 0 391-156 391-370v-968h190v983c0 307-230 531-581 531" id="az"/><path fill="#fff" d="M645 0H180v-1490h484c435 0 692 280 692 742 0 466-257 748-711 748zM370-168h263c363 0 539-218 539-580 0-358-176-574-521-574H370v1154" id="aA"/><path fill="#fff" d="M96 279C273-86 346-350 346-607c0-292-95-659-250-974h175c150 246 258 650 258 974 0 297-91 602-258 886H96" id="aB"/><g id="h"><use transform="matrix(0.006510416666666667,0,0,0.006510416666666667,0,0)" xlink:href="#aw"/><use transform="matrix(0.006510416666666667,0,0,0.006510416666666667,4.86328125,0)" xlink:href="#ax"/><use transform="matrix(0.006510416666666667,0,0,0.006510416666666667,14.602864583333334,0)" xlink:href="#ay"/><use transform="matrix(0.006510416666666667,0,0,0.006510416666666667,23.18359375,0)" xlink:href="#az"/><use transform="matrix(0.006510416666666667,0,0,0.006510416666666667,33.10546875,0)" xlink:href="#aA"/><use transform="matrix(0.006510416666666667,0,0,0.006510416666666667,42.727864583333336,0)" xlink:href="#aB"/></g><g id="i"><use transform="matrix(0.006510416666666667,0,0,0.006510416666666667,0,0)" xlink:href="#az"/><use transform="matrix(0.006510416666666667,0,0,0.006510416666666667,9.921875,0)" xlink:href="#ap"/><use transform="matrix(0.006510416666666667,0,0,0.006510416666666667,16.959635416666668,0)" xlink:href="#am"/><use transform="matrix(0.006510416666666667,0,0,0.006510416666666667,24.733072916666668,0)" xlink:href="#av"/><use transform="matrix(0.006510416666666667,0,0,0.006510416666666667,29.752604166666668,0)" xlink:href="#ap"/></g><path fill="#fff" d="M52 0l541-1490h220L1361 0h-200l-149-416H398L254 0H52zm404-582h497c-103-290-145-390-251-756-108 377-145 460-246 756" id="aC"/><path fill="#fff" d="M613 24c-304 0-509-231-509-576 0-350 205-580 509-580 216 0 392 114 453 309l-173 49c-33-115-133-197-280-197-223 0-326 196-326 419 0 220 103 415 326 415 150 0 252-85 285-206l172 49C1010-95 832 24 613 24" id="aD"/><path fill="#fff" d="M537 14c-226 0-379-139-379-422v-710h180v695c0 172 97 275 253 275 160 0 281-109 281-300v-670h181V0H879v-209C806-46 684 14 537 14" id="aE"/><g id="j"><use transform="matrix(0.006510416666666667,0,0,0.006510416666666667,0,0)" xlink:href="#aC"/><use transform="matrix(0.006510416666666667,0,0,0.006510416666666667,9.19921875,0)" xlink:href="#aD"/><use transform="matrix(0.006510416666666667,0,0,0.006510416666666667,16.81640625,0)" xlink:href="#aD"/><use transform="matrix(0.006510416666666667,0,0,0.006510416666666667,24.43359375,0)" xlink:href="#au"/><use transform="matrix(0.006510416666666667,0,0,0.006510416666666667,32.428385416666664,0)" xlink:href="#aE"/><use transform="matrix(0.006510416666666667,0,0,0.006510416666666667,40.3125,0)" xlink:href="#ak"/><use transform="matrix(0.006510416666666667,0,0,0.006510416666666667,48.190104166666664,0)" xlink:href="#as"/></g><path fill="#fff" d="M226 279v-1860h398v153H398V126h226v153H226" id="aF"/><path fill="#fff" d="M158 0v-1118h180V0H158zm91-1301c-68 0-125-53-125-119s57-119 125-119c69 0 126 53 126 119s-57 119-126 119" id="aG"/><path fill="#fff" d="M128 359l88-567h206L266 359H128" id="aH"/><g id="k"><use transform="matrix(0.006510416666666667,0,0,0.006510416666666667,0,0)" xlink:href="#aF"/><use transform="matrix(0.006510416666666667,0,0,0.006510416666666667,4.86328125,0)" xlink:href="#ay"/><use transform="matrix(0.006510416666666667,0,0,0.006510416666666667,13.248697916666668,0)" xlink:href="#am"/><use transform="matrix(0.006510416666666667,0,0,0.006510416666666667,21.022135416666668,0)" xlink:href="#al"/><use transform="matrix(0.006510416666666667,0,0,0.006510416666666667,29.19921875,0)" xlink:href="#aG"/><use transform="matrix(0.006510416666666667,0,0,0.006510416666666667,32.428385416666664,0)" xlink:href="#ap"/><use transform="matrix(0.006510416666666667,0,0,0.006510416666666667,39.46614583333333,0)" xlink:href="#as"/><use transform="matrix(0.006510416666666667,0,0,0.006510416666666667,43.69791666666666,0)" xlink:href="#am"/><use transform="matrix(0.006510416666666667,0,0,0.006510416666666667,51.47135416666666,0)" xlink:href="#av"/><use transform="matrix(0.006510416666666667,0,0,0.006510416666666667,55.65755208333332,0)" xlink:href="#aH"/></g><path fill="#fff" d="M180 0v-1490h190v1322h690V0H180" id="aI"/><path fill="#fff" d="M123 279V126h226v-1554H123v-153h398V279H123" id="aJ"/><g id="l"><use transform="matrix(0.006510416666666667,0,0,0.006510416666666667,0,0)" xlink:href="#aI"/><use transform="matrix(0.006510416666666667,0,0,0.006510416666666667,7.5390625,0)" xlink:href="#au"/><use transform="matrix(0.006510416666666667,0,0,0.006510416666666667,15.533854166666668,0)" xlink:href="#al"/><use transform="matrix(0.006510416666666667,0,0,0.006510416666666667,23.7109375,0)" xlink:href="#aG"/><use transform="matrix(0.006510416666666667,0,0,0.006510416666666667,26.940104166666668,0)" xlink:href="#ak"/><use transform="matrix(0.006510416666666667,0,0,0.006510416666666667,34.817708333333336,0)" xlink:href="#aJ"/></g><path fill="#fff" d="M600 0L52-1490h200c166 485 304 806 458 1336 156-533 285-846 449-1336h202L819 0H600" id="aK"/><path fill="#fff" d="M409 0L70-1118h191c89 329 165 560 243 925 75-353 154-601 240-925h192c85 325 161 564 235 922 77-354 157-598 244-922h191L1267 0h-179c-86-307-176-590-250-913C763-588 675-308 588 0H409" id="aL"/><g id="m"><use transform="matrix(0.006510416666666667,0,0,0.006510416666666667,0,0)" xlink:href="#aK"/><use transform="matrix(0.006510416666666667,0,0,0.006510416666666667,9.19921875,0)" xlink:href="#aG"/><use transform="matrix(0.006510416666666667,0,0,0.006510416666666667,12.428385416666668,0)" xlink:href="#am"/><use transform="matrix(0.006510416666666667,0,0,0.006510416666666667,19.9609375,0)" xlink:href="#aL"/></g><path fill="#fff" d="M98-1322v-168h1126v168H757V0H567v-1322H98" id="aM"/><g id="n"><use transform="matrix(0.006510416666666667,0,0,0.006510416666666667,0,0)" xlink:href="#aM"/><use transform="matrix(0.006510416666666667,0,0,0.006510416666666667,7.8515625,0)" xlink:href="#av"/><use transform="matrix(0.006510416666666667,0,0,0.006510416666666667,12.87109375,0)" xlink:href="#aj"/><use transform="matrix(0.006510416666666667,0,0,0.006510416666666667,20.358072916666668,0)" xlink:href="#ak"/><use transform="matrix(0.006510416666666667,0,0,0.006510416666666667,28.235677083333336,0)" xlink:href="#ap"/><use transform="matrix(0.006510416666666667,0,0,0.006510416666666667,35.2734375,0)" xlink:href="#aj"/><use transform="matrix(0.006510416666666667,0,0,0.006510416666666667,42.760416666666664,0)" xlink:href="#aD"/><use transform="matrix(0.006510416666666667,0,0,0.006510416666666667,50.377604166666664,0)" xlink:href="#as"/><use transform="matrix(0.006510416666666667,0,0,0.006510416666666667,54.73958333333332,0)" xlink:href="#aG"/><use transform="matrix(0.006510416666666667,0,0,0.006510416666666667,57.96874999999999,0)" xlink:href="#au"/><use transform="matrix(0.006510416666666667,0,0,0.006510416666666667,65.96354166666666,0)" xlink:href="#ak"/></g><path fill="#fff" d="M180 0v-1490h190v644h782v-644h190V0h-190v-678H370V0H180" id="aN"/><path fill="#fff" d="M140 405l46-156c120 36 205 19 263-150l32-93L54-1118h197c107 313 237 620 324 950 87-331 219-637 326-950h196L606 167c-68 178-176 259-334 259-64 0-113-12-132-21" id="aO"/><g id="o"><use transform="matrix(0.006510416666666667,0,0,0.006510416666666667,0,0)" xlink:href="#aN"/><use transform="matrix(0.006510416666666667,0,0,0.006510416666666667,9.908854166666668,0)" xlink:href="#aG"/><use transform="matrix(0.006510416666666667,0,0,0.006510416666666667,13.138020833333336,0)" xlink:href="#ap"/><use transform="matrix(0.006510416666666667,0,0,0.006510416666666667,20.175781250000004,0)" xlink:href="#as"/><use transform="matrix(0.006510416666666667,0,0,0.006510416666666667,24.40755208333334,0)" xlink:href="#au"/><use transform="matrix(0.006510416666666667,0,0,0.006510416666666667,32.40234375000001,0)" xlink:href="#av"/><use transform="matrix(0.006510416666666667,0,0,0.006510416666666667,37.63020833333334,0)" xlink:href="#aO"/></g><path fill="#fff" d="M458 0L52-1490h194c108 439 233 855 324 1313 92-459 221-873 331-1313h216c110 438 234 854 330 1307 92-455 216-869 323-1307h196L1558 0h-221l-256-944c-26-95-50-200-73-331-22 122-44 223-73 331L680 0H458" id="aP"/><g id="p"><use transform="matrix(0.006510416666666667,0,0,0.006510416666666667,0,0)" xlink:href="#aP"/><use transform="matrix(0.006510416666666667,0,0,0.006510416666666667,12.688802083333334,0)" xlink:href="#av"/><use transform="matrix(0.006510416666666667,0,0,0.006510416666666667,17.916666666666668,0)" xlink:href="#aG"/><use transform="matrix(0.006510416666666667,0,0,0.006510416666666667,21.145833333333336,0)" xlink:href="#as"/><use transform="matrix(0.006510416666666667,0,0,0.006510416666666667,25.37760416666667,0)" xlink:href="#am"/></g><path fill="#fff" d="M481 0L54-1118h197c107 314 236 620 325 951 87-331 217-637 324-951h197L670 0H481" id="aQ"/><g id="q"><use transform="matrix(0.006510416666666667,0,0,0.006510416666666667,0,0)" xlink:href="#ay"/><use transform="matrix(0.006510416666666667,0,0,0.006510416666666667,8.385416666666668,0)" xlink:href="#am"/><use transform="matrix(0.006510416666666667,0,0,0.006510416666666667,15.8984375,0)" xlink:href="#aQ"/><use transform="matrix(0.006510416666666667,0,0,0.006510416666666667,23.391927083333336,0)" xlink:href="#aG"/><use transform="matrix(0.006510416666666667,0,0,0.006510416666666667,26.621093750000004,0)" xlink:href="#am"/><use transform="matrix(0.006510416666666667,0,0,0.006510416666666667,34.153645833333336,0)" xlink:href="#aL"/></g><g id="r"><use transform="matrix(0.006510416666666667,0,0,0.006510416666666667,0,0)" xlink:href="#ay"/><use transform="matrix(0.006510416666666667,0,0,0.006510416666666667,8.385416666666668,0)" xlink:href="#am"/><use transform="matrix(0.006510416666666667,0,0,0.006510416666666667,15.8984375,0)" xlink:href="#aQ"/><use transform="matrix(0.006510416666666667,0,0,0.006510416666666667,23.391927083333336,0)" xlink:href="#aG"/><use transform="matrix(0.006510416666666667,0,0,0.006510416666666667,26.621093750000004,0)" xlink:href="#am"/><use transform="matrix(0.006510416666666667,0,0,0.006510416666666667,34.153645833333336,0)" xlink:href="#aL"/><use transform="matrix(0.006510416666666667,0,0,0.006510416666666667,45.06510416666667,0)" xlink:href="#ap"/></g><image width="10" height="10" id="aR" xlink:href="https://cdn-cashy-static-assets.lucidchart.com/libraries/OracleCloudInfrastructure/preview-pngs/ArtificialIntelligence.png" preserveAspectRatio="none"/><pattern id="s" patternUnits="userSpaceOnUse" x="-525.82" y="1252.03" width="110" height="103.94"><use xlink:href="#aR" transform="translate(0, 0) scale(11,10.393700787401574)"/></pattern><path fill="#fff" d="M174-520v-126l944-476v196L406-588v12l712 338v194" id="aS"/><path fill="#fff" d="M1181-520L237-44v-194l712-338v-12L237-926v-196l944 476v126" id="aT"/><g id="t"><use transform="matrix(0.008680555555555556,0,0,0.008680555555555556,0,0)" xlink:href="#aS"/><use transform="matrix(0.008680555555555556,0,0,0.008680555555555556,11.762152777777779,0)" xlink:href="#aS"/><use transform="matrix(0.008680555555555556,0,0,0.008680555555555556,23.524305555555557,0)" xlink:href="#ap"/><use transform="matrix(0.008680555555555556,0,0,0.008680555555555556,32.907986111111114,0)" xlink:href="#aO"/><use transform="matrix(0.008680555555555556,0,0,0.008680555555555556,42.89930555555556,0)" xlink:href="#ap"/><use transform="matrix(0.008680555555555556,0,0,0.008680555555555556,52.282986111111114,0)" xlink:href="#as"/><use transform="matrix(0.008680555555555556,0,0,0.008680555555555556,57.92534722222222,0)" xlink:href="#am"/><use transform="matrix(0.008680555555555556,0,0,0.008680555555555556,68.28993055555556,0)" xlink:href="#ao"/><use transform="matrix(0.008680555555555556,0,0,0.008680555555555556,83.86284722222223,0)" xlink:href="#aT"/><use transform="matrix(0.008680555555555556,0,0,0.008680555555555556,95.625,0)" xlink:href="#aT"/></g><g id="u"><use transform="matrix(0.008680555555555556,0,0,0.008680555555555556,0,0)" xlink:href="#an"/><use transform="matrix(0.008680555555555556,0,0,0.008680555555555556,13.26388888888889,0)" xlink:href="#aj"/><use transform="matrix(0.008680555555555556,0,0,0.008680555555555556,23.24652777777778,0)" xlink:href="#ao"/><use transform="matrix(0.008680555555555556,0,0,0.008680555555555556,38.81944444444444,0)" xlink:href="#am"/></g><path fill="#fff" d="M158 418v-1536h174v179h20c37-59 106-193 324-193 279 0 474 222 474 576 0 356-194 580-473 580-213 0-288-135-325-197h-14v591H158zm492-555c209 0 317-186 317-421 0-232-105-413-317-413-206 0-314 166-314 413 0 249 111 421 314 421" id="aU"/><path fill="#fff" d="M798-719v166H144v-166h654" id="aV"/><g id="v"><use transform="matrix(0.008680555555555556,0,0,0.008680555555555556,0,0)" xlink:href="#aM"/><use transform="matrix(0.008680555555555556,0,0,0.008680555555555556,10.086805555555555,0)" xlink:href="#au"/><use transform="matrix(0.008680555555555556,0,0,0.008680555555555556,20.74652777777778,0)" xlink:href="#aU"/><use transform="matrix(0.008680555555555556,0,0,0.008680555555555556,31.631944444444446,0)" xlink:href="#aV"/><use transform="matrix(0.008680555555555556,0,0,0.008680555555555556,39.80902777777778,0)" xlink:href="#az"/><use transform="matrix(0.008680555555555556,0,0,0.008680555555555556,53.03819444444445,0)" xlink:href="#aq"/></g><path fill="#fff" d="M370-1490V0H180v-1490h190" id="aW"/><g id="w"><use transform="matrix(0.008680555555555556,0,0,0.008680555555555556,0,0)" xlink:href="#aC"/><use transform="matrix(0.008680555555555556,0,0,0.008680555555555556,12.265625,0)" xlink:href="#aq"/><use transform="matrix(0.008680555555555556,0,0,0.008680555555555556,23.619791666666668,0)" xlink:href="#aW"/></g><path fill="#fff" d="M338-670V0H158v-1490h180v566c73-149 190-208 336-208 226 0 379 139 379 422V0H872v-695c0-172-96-275-252-275-161 0-282 109-282 300" id="aX"/><g id="x"><use transform="matrix(0.006510416666666667,0,0,0.006510416666666667,0,0)" xlink:href="#aq"/><use transform="matrix(0.006510416666666667,0,0,0.006510416666666667,8.515625,0)" xlink:href="#aE"/><use transform="matrix(0.006510416666666667,0,0,0.006510416666666667,16.399739583333336,0)" xlink:href="#av"/><use transform="matrix(0.006510416666666667,0,0,0.006510416666666667,21.197916666666668,0)" xlink:href="#aD"/><use transform="matrix(0.006510416666666667,0,0,0.006510416666666667,28.815104166666668,0)" xlink:href="#aX"/><use transform="matrix(0.006510416666666667,0,0,0.006510416666666667,36.69921875,0)" xlink:href="#aj"/><use transform="matrix(0.006510416666666667,0,0,0.006510416666666667,44.186197916666664,0)" xlink:href="#ap"/><use transform="matrix(0.006510416666666667,0,0,0.006510416666666667,51.22395833333333,0)" xlink:href="#am"/></g><g id="y"><use transform="matrix(0.006510416666666667,0,0,0.006510416666666667,0,0)" xlink:href="#an"/><use transform="matrix(0.006510416666666667,0,0,0.006510416666666667,9.947916666666668,0)" xlink:href="#aj"/><use transform="matrix(0.006510416666666667,0,0,0.006510416666666667,17.434895833333336,0)" xlink:href="#ao"/><use transform="matrix(0.006510416666666667,0,0,0.006510416666666667,29.114583333333336,0)" xlink:href="#am"/></g><g id="z"><use transform="matrix(0.006510416666666667,0,0,0.006510416666666667,0,0)" xlink:href="#aM"/><use transform="matrix(0.006510416666666667,0,0,0.006510416666666667,7.565104166666667,0)" xlink:href="#au"/><use transform="matrix(0.006510416666666667,0,0,0.006510416666666667,15.559895833333334,0)" xlink:href="#aU"/><use transform="matrix(0.006510416666666667,0,0,0.006510416666666667,23.723958333333336,0)" xlink:href="#aV"/><use transform="matrix(0.006510416666666667,0,0,0.006510416666666667,29.856770833333336,0)" xlink:href="#aE"/><use transform="matrix(0.006510416666666667,0,0,0.006510416666666667,37.74088541666667,0)" xlink:href="#aU"/></g><g id="A"><use transform="matrix(0.006510416666666667,0,0,0.006510416666666667,0,0)" xlink:href="#ai"/><use transform="matrix(0.006510416666666667,0,0,0.006510416666666667,12.044270833333334,0)" xlink:href="#aj"/><use transform="matrix(0.006510416666666667,0,0,0.006510416666666667,19.53125,0)" xlink:href="#al"/><use transform="matrix(0.006510416666666667,0,0,0.006510416666666667,27.708333333333336,0)" xlink:href="#am"/></g><g id="B"><use transform="matrix(0.006510416666666667,0,0,0.006510416666666667,0,0)" xlink:href="#aM"/><use transform="matrix(0.006510416666666667,0,0,0.006510416666666667,7.565104166666667,0)" xlink:href="#au"/><use transform="matrix(0.006510416666666667,0,0,0.006510416666666667,15.559895833333334,0)" xlink:href="#aU"/><use transform="matrix(0.006510416666666667,0,0,0.006510416666666667,23.723958333333336,0)" xlink:href="#aV"/><use transform="matrix(0.006510416666666667,0,0,0.006510416666666667,29.856770833333336,0)" xlink:href="#aE"/><use transform="matrix(0.006510416666666667,0,0,0.006510416666666667,37.74088541666667,0)" xlink:href="#aU"/></g><g id="C"><use transform="matrix(0.006510416666666667,0,0,0.006510416666666667,0,0)" xlink:href="#aW"/><use transform="matrix(0.006510416666666667,0,0,0.006510416666666667,3.776041666666667,0)" xlink:href="#as"/><use transform="matrix(0.006510416666666667,0,0,0.006510416666666667,8.0078125,0)" xlink:href="#am"/><use transform="matrix(0.006510416666666667,0,0,0.006510416666666667,15.78125,0)" xlink:href="#ao"/><use transform="matrix(0.006510416666666667,0,0,0.006510416666666667,27.4609375,0)" xlink:href="#ap"/></g><path fill="#fff" d="M180 0v-1490h528c311 0 458 177 458 395 0 191-114 278-244 313v14c139 9 302 137 302 371 0 225-148 397-499 397H180zm190-168h350c232 0 321-102 321-231 0-149-120-277-311-277H370v508zm0-668h328c160 0 286-101 286-255 0-129-87-231-280-231H370v486" id="aY"/><g id="D"><use transform="matrix(0.006510416666666667,0,0,0.006510416666666667,0,0)" xlink:href="#aY"/><use transform="matrix(0.006510416666666667,0,0,0.006510416666666667,8.723958333333334,0)" xlink:href="#av"/><use transform="matrix(0.006510416666666667,0,0,0.006510416666666667,13.522135416666668,0)" xlink:href="#au"/><use transform="matrix(0.006510416666666667,0,0,0.006510416666666667,21.276041666666668,0)" xlink:href="#aL"/><use transform="matrix(0.006510416666666667,0,0,0.006510416666666667,32.1875,0)" xlink:href="#ap"/><use transform="matrix(0.006510416666666667,0,0,0.006510416666666667,39.225260416666664,0)" xlink:href="#am"/></g><path fill="#fff" d="M580 20c-295 0-476-179-476-409 0-189 123-290 294-416-104-125-173-226-173-362 0-197 144-337 365-337 224 0 362 144 362 321 0 185-174 312-306 405l319 387c38-75 61-165 61-267h173c0 208-62 332-120 406L1287 0h-217L967-124C868-27 716 20 580 20zm279-273L507-675l-51 38c-123 91-167 162-167 254 0 147 113 246 278 246 107 0 210-41 292-116zM538-908l97-72c54-40 136-101 136-206 0-95-68-163-176-163-113 0-189 74-189 181 0 90 53 164 132 260" id="aZ"/><use transform="matrix(0.006510416666666667,0,0,0.006510416666666667,0,0)" xlink:href="#aZ" id="E"/><path fill="#fff" d="M657 26c-323 0-524-166-541-416h195c15 169 171 246 346 246 202 0 356-106 356-265 5-203-294-238-475-293-239-73-380-191-380-389 0-252 224-419 512-419 294 0 499 171 508 396H992c-17-145-151-228-328-228-193 0-321 102-321 242 0 156 175 211 284 241l149 41c160 44 422 134 422 412 0 244-197 432-541 432" id="ba"/><g id="F"><use transform="matrix(0.006510416666666667,0,0,0.006510416666666667,0,0)" xlink:href="#ba"/><use transform="matrix(0.006510416666666667,0,0,0.006510416666666667,8.5546875,0)" xlink:href="#am"/><use transform="matrix(0.006510416666666667,0,0,0.006510416666666667,16.458333333333336,0)" xlink:href="#aj"/><use transform="matrix(0.006510416666666667,0,0,0.006510416666666667,23.945312500000004,0)" xlink:href="#av"/><use transform="matrix(0.006510416666666667,0,0,0.006510416666666667,28.743489583333336,0)" xlink:href="#aD"/><use transform="matrix(0.006510416666666667,0,0,0.006510416666666667,36.360677083333336,0)" xlink:href="#aX"/></g><g id="G"><use transform="matrix(0.006510416666666667,0,0,0.006510416666666667,0,0)" xlink:href="#an"/><use transform="matrix(0.006510416666666667,0,0,0.006510416666666667,9.947916666666668,0)" xlink:href="#aj"/><use transform="matrix(0.006510416666666667,0,0,0.006510416666666667,17.434895833333336,0)" xlink:href="#ao"/><use transform="matrix(0.006510416666666667,0,0,0.006510416666666667,29.114583333333336,0)" xlink:href="#am"/></g><g id="H"><use transform="matrix(0.006510416666666667,0,0,0.006510416666666667,0,0)" xlink:href="#aM"/><use transform="matrix(0.006510416666666667,0,0,0.006510416666666667,7.565104166666667,0)" xlink:href="#au"/><use transform="matrix(0.006510416666666667,0,0,0.006510416666666667,15.559895833333334,0)" xlink:href="#aU"/><use transform="matrix(0.006510416666666667,0,0,0.006510416666666667,23.723958333333336,0)" xlink:href="#aV"/><use transform="matrix(0.006510416666666667,0,0,0.006510416666666667,29.856770833333336,0)" xlink:href="#aE"/><use transform="matrix(0.006510416666666667,0,0,0.006510416666666667,37.74088541666667,0)" xlink:href="#aU"/><use transform="matrix(0.006510416666666667,0,0,0.006510416666666667,45.90494791666667,0)" xlink:href="#ap"/></g><path fill="#fff" d="M166-471v-247l1019-454v289L492-601v13l693 282v287" id="bb"/><path fill="#fff" d="M628 22C291 22 81-210 81-554c0-346 210-578 547-578 265 0 455 142 497 372l-279 52c-25-116-99-188-215-188-160 0-244 139-244 341 0 200 84 341 244 341 116 0 193-74 217-195l279 51C1085-123 896 22 628 22" id="bc"/><path fill="#fff" d="M428-1490V0H128v-1490h300" id="bd"/><path fill="#fff" d="M513 14c-232 0-385-159-385-421v-711h300v659c0 139 76 222 202 222 127 0 217-86 217-234v-647h301V0H864l-4-232C797-74 683 14 513 14" id="be"/><path fill="#fff" d="M1224-471L205-19v-287l694-281v-14L205-883v-289l1019 454v247" id="bf"/><g id="I"><use transform="matrix(0.006510416666666667,0,0,0.006510416666666667,0,0)" xlink:href="#bb"/><use transform="matrix(0.006510416666666667,0,0,0.006510416666666667,9.049479166666668,0)" xlink:href="#bb"/><use transform="matrix(0.006510416666666667,0,0,0.006510416666666667,18.098958333333336,0)" xlink:href="#aa"/><use transform="matrix(0.006510416666666667,0,0,0.006510416666666667,21.712239583333336,0)" xlink:href="#ab"/><use transform="matrix(0.006510416666666667,0,0,0.006510416666666667,30.013020833333336,0)" xlink:href="#bc"/><use transform="matrix(0.006510416666666667,0,0,0.006510416666666667,37.85807291666667,0)" xlink:href="#bd"/><use transform="matrix(0.006510416666666667,0,0,0.006510416666666667,41.47135416666667,0)" xlink:href="#be"/><use transform="matrix(0.006510416666666667,0,0,0.006510416666666667,49.77213541666667,0)" xlink:href="#Y"/><use transform="matrix(0.006510416666666667,0,0,0.006510416666666667,58.17708333333335,0)" xlink:href="#V"/><use transform="matrix(0.006510416666666667,0,0,0.006510416666666667,66.11979166666667,0)" xlink:href="#bf"/><use transform="matrix(0.006510416666666667,0,0,0.006510416666666667,75.16927083333334,0)" xlink:href="#bf"/></g><g id="J"><use transform="matrix(0.006510416666666667,0,0,0.006510416666666667,0,0)" xlink:href="#aP"/><use transform="matrix(0.006510416666666667,0,0,0.006510416666666667,12.4609375,0)" xlink:href="#aj"/><use transform="matrix(0.006510416666666667,0,0,0.006510416666666667,19.947916666666668,0)" xlink:href="#ar"/><use transform="matrix(0.006510416666666667,0,0,0.006510416666666667,23.177083333333336,0)" xlink:href="#ar"/><use transform="matrix(0.006510416666666667,0,0,0.006510416666666667,26.406250000000004,0)" xlink:href="#am"/><use transform="matrix(0.006510416666666667,0,0,0.006510416666666667,34.1796875,0)" xlink:href="#as"/></g><g id="K"><use transform="matrix(0.006510416666666667,0,0,0.006510416666666667,0,0)" xlink:href="#aF"/><use transform="matrix(0.006510416666666667,0,0,0.006510416666666667,4.86328125,0)" xlink:href="#aK"/><use transform="matrix(0.006510416666666667,0,0,0.006510416666666667,14.0625,0)" xlink:href="#aG"/><use transform="matrix(0.006510416666666667,0,0,0.006510416666666667,17.291666666666668,0)" xlink:href="#am"/><use transform="matrix(0.006510416666666667,0,0,0.006510416666666667,24.82421875,0)" xlink:href="#aL"/></g><g id="L"><use transform="matrix(0.006510416666666667,0,0,0.006510416666666667,0,0)" xlink:href="#aY"/><use transform="matrix(0.006510416666666667,0,0,0.006510416666666667,8.723958333333334,0)" xlink:href="#aj"/><use transform="matrix(0.006510416666666667,0,0,0.006510416666666667,16.2109375,0)" xlink:href="#ar"/><use transform="matrix(0.006510416666666667,0,0,0.006510416666666667,19.440104166666668,0)" xlink:href="#aj"/><use transform="matrix(0.006510416666666667,0,0,0.006510416666666667,26.927083333333336,0)" xlink:href="#ak"/><use transform="matrix(0.006510416666666667,0,0,0.006510416666666667,34.8046875,0)" xlink:href="#aD"/><use transform="matrix(0.006510416666666667,0,0,0.006510416666666667,42.421875,0)" xlink:href="#am"/><use transform="matrix(0.006510416666666667,0,0,0.006510416666666667,50.1953125,0)" xlink:href="#aH"/></g><g id="M"><use transform="matrix(0.006510416666666667,0,0,0.006510416666666667,0,0)" xlink:href="#aA"/><use transform="matrix(0.006510416666666667,0,0,0.006510416666666667,9.622395833333334,0)" xlink:href="#am"/><use transform="matrix(0.006510416666666667,0,0,0.006510416666666667,17.395833333333336,0)" xlink:href="#aU"/><use transform="matrix(0.006510416666666667,0,0,0.006510416666666667,25.559895833333336,0)" xlink:href="#au"/><use transform="matrix(0.006510416666666667,0,0,0.006510416666666667,33.5546875,0)" xlink:href="#ap"/><use transform="matrix(0.006510416666666667,0,0,0.006510416666666667,40.592447916666664,0)" xlink:href="#as"/><use transform="matrix(0.006510416666666667,0,0,0.006510416666666667,44.95442708333333,0)" xlink:href="#aJ"/></g><path fill="#fff" d="M180 0v-1490h908v168H370v486h669v168H370v500h727V0H180" id="bg"/><g id="N"><use transform="matrix(0.006510416666666667,0,0,0.006510416666666667,0,0)" xlink:href="#bg"/><use transform="matrix(0.006510416666666667,0,0,0.006510416666666667,8.014322916666668,0)" xlink:href="#ak"/><use transform="matrix(0.006510416666666667,0,0,0.006510416666666667,15.891927083333337,0)" xlink:href="#as"/><use transform="matrix(0.006510416666666667,0,0,0.006510416666666667,20.123697916666668,0)" xlink:href="#am"/><use transform="matrix(0.006510416666666667,0,0,0.006510416666666667,27.897135416666668,0)" xlink:href="#av"/></g><g id="O"><use transform="matrix(0.006510416666666667,0,0,0.006510416666666667,0,0)" xlink:href="#aC"/><use transform="matrix(0.006510416666666667,0,0,0.006510416666666667,9.19921875,0)" xlink:href="#aD"/><use transform="matrix(0.006510416666666667,0,0,0.006510416666666667,16.81640625,0)" xlink:href="#aD"/><use transform="matrix(0.006510416666666667,0,0,0.006510416666666667,24.43359375,0)" xlink:href="#au"/><use transform="matrix(0.006510416666666667,0,0,0.006510416666666667,32.428385416666664,0)" xlink:href="#aE"/><use transform="matrix(0.006510416666666667,0,0,0.006510416666666667,40.3125,0)" xlink:href="#ak"/><use transform="matrix(0.006510416666666667,0,0,0.006510416666666667,48.190104166666664,0)" xlink:href="#as"/></g><g id="P"><use transform="matrix(0.006510416666666667,0,0,0.006510416666666667,0,0)" xlink:href="#aA"/><use transform="matrix(0.006510416666666667,0,0,0.006510416666666667,9.622395833333334,0)" xlink:href="#am"/><use transform="matrix(0.006510416666666667,0,0,0.006510416666666667,17.395833333333336,0)" xlink:href="#as"/><use transform="matrix(0.006510416666666667,0,0,0.006510416666666667,21.82291666666667,0)" xlink:href="#aj"/><use transform="matrix(0.006510416666666667,0,0,0.006510416666666667,29.30989583333334,0)" xlink:href="#aG"/><use transform="matrix(0.006510416666666667,0,0,0.006510416666666667,32.53906250000001,0)" xlink:href="#ar"/><use transform="matrix(0.006510416666666667,0,0,0.006510416666666667,35.76822916666667,0)" xlink:href="#ap"/></g><g id="Q"><use transform="matrix(0.006510416666666667,0,0,0.006510416666666667,0,0)" xlink:href="#bb"/><use transform="matrix(0.006510416666666667,0,0,0.006510416666666667,9.049479166666668,0)" xlink:href="#bb"/><use transform="matrix(0.006510416666666667,0,0,0.006510416666666667,18.098958333333336,0)" xlink:href="#aa"/><use transform="matrix(0.006510416666666667,0,0,0.006510416666666667,21.712239583333336,0)" xlink:href="#ab"/><use transform="matrix(0.006510416666666667,0,0,0.006510416666666667,30.013020833333336,0)" xlink:href="#bc"/><use transform="matrix(0.006510416666666667,0,0,0.006510416666666667,37.85807291666667,0)" xlink:href="#bd"/><use transform="matrix(0.006510416666666667,0,0,0.006510416666666667,41.47135416666667,0)" xlink:href="#be"/><use transform="matrix(0.006510416666666667,0,0,0.006510416666666667,49.77213541666667,0)" xlink:href="#Y"/><use transform="matrix(0.006510416666666667,0,0,0.006510416666666667,58.17708333333335,0)" xlink:href="#V"/><use transform="matrix(0.006510416666666667,0,0,0.006510416666666667,66.11979166666667,0)" xlink:href="#U"/><use transform="matrix(0.006510416666666667,0,0,0.006510416666666667,73.58723958333334,0)" xlink:href="#bf"/><use transform="matrix(0.006510416666666667,0,0,0.006510416666666667,82.63671875000001,0)" xlink:href="#bf"/></g><path fill="#fff" d="M42 0l360-574-338-544h324c72 124 151 261 209 394 58-134 140-271 215-394h318L785-570 1146 0H824c-79-136-169-280-234-425C528-278 439-134 360 0H42" id="bh"/><g id="R"><use transform="matrix(0.006510416666666667,0,0,0.006510416666666667,0,0)" xlink:href="#bb"/><use transform="matrix(0.006510416666666667,0,0,0.006510416666666667,9.049479166666668,0)" xlink:href="#bb"/><use transform="matrix(0.006510416666666667,0,0,0.006510416666666667,18.098958333333336,0)" xlink:href="#V"/><use transform="matrix(0.006510416666666667,0,0,0.006510416666666667,25.774739583333336,0)" xlink:href="#bh"/><use transform="matrix(0.006510416666666667,0,0,0.006510416666666667,33.69791666666667,0)" xlink:href="#ah"/><use transform="matrix(0.006510416666666667,0,0,0.006510416666666667,38.450520833333336,0)" xlink:href="#V"/><use transform="matrix(0.006510416666666667,0,0,0.006510416666666667,46.39322916666667,0)" xlink:href="#ab"/><use transform="matrix(0.006510416666666667,0,0,0.006510416666666667,54.69401041666667,0)" xlink:href="#Y"/><use transform="matrix(0.006510416666666667,0,0,0.006510416666666667,63.09895833333335,0)" xlink:href="#bf"/><use transform="matrix(0.006510416666666667,0,0,0.006510416666666667,72.14843750000001,0)" xlink:href="#bf"/></g><g id="S"><use transform="matrix(0.006510416666666667,0,0,0.006510416666666667,0,0)" xlink:href="#aI"/><use transform="matrix(0.006510416666666667,0,0,0.006510416666666667,7.5390625,0)" xlink:href="#aG"/><use transform="matrix(0.006510416666666667,0,0,0.006510416666666667,10.768229166666668,0)" xlink:href="#ap"/><use transform="matrix(0.006510416666666667,0,0,0.006510416666666667,17.805989583333336,0)" xlink:href="#as"/></g></defs></g></svg>