<svg width="830" height="115" viewBox="0 0 830 115" fill="none" xmlns="http://www.w3.org/2000/svg">
<g clip-path="url(#clip0_608_56)">
<path d="M830 0H0V115H830V0Z" fill="#232946"/>
<path d="M396.89 58.448H402.546V64.104C402.49 65.784 402.154 67.296 401.538 68.584C401.034 69.704 400.25 70.768 399.13 71.608C398.01 72.504 396.498 73.008 394.482 73.008C392.466 73.008 390.898 72.504 389.778 71.608C388.658 70.768 387.93 69.704 387.426 68.584C386.81 67.296 386.474 65.784 386.418 64.104V39.856C386.474 38.232 386.81 36.72 387.426 35.432C387.93 34.312 388.658 33.192 389.778 32.352C390.898 31.512 392.466 30.952 394.482 30.952C396.498 30.952 398.01 31.512 399.13 32.352C400.25 33.192 401.034 34.312 401.538 35.432C402.154 36.72 402.49 38.232 402.546 39.856V45.512H396.89V39.856C396.89 38.736 396.61 37.952 395.994 37.28C395.714 37 395.21 36.832 394.594 36.832C393.53 36.832 393.026 37.616 392.746 38.344C392.578 38.792 392.522 39.296 392.466 39.856V64.104C392.522 65.28 392.858 66.064 393.418 66.68C393.698 66.96 394.09 67.128 394.594 67.128C395.882 67.128 396.386 66.456 396.666 65.616C396.834 65.224 396.89 64.72 396.89 64.104V58.448ZM417.481 41.48V47.752C416.977 47.584 416.417 47.528 415.913 47.528C415.017 47.528 413.953 47.64 413.057 48.48C411.993 49.376 411.825 50.328 411.825 51.28V72.56H406.169V41.928H411.825V45.344C411.881 44.952 412.273 44 413.169 43.104C414.065 42.264 415.409 41.48 417.481 41.48ZM428.636 61.584H433.9V65.112C433.732 68.08 432.836 70.152 430.82 71.776C429.812 72.616 428.412 73.008 426.564 73.008C422.924 73.008 421.076 70.992 420.18 68.976C419.676 67.8 419.34 66.456 419.284 64.944V49.544C419.452 46.576 420.404 44.392 422.42 42.712C423.372 41.872 424.772 41.48 426.62 41.48C430.26 41.48 432.108 43.496 433.004 45.456C433.508 46.632 433.844 47.92 433.9 49.376V58.28H424.548V64.944C424.604 66.12 424.94 66.96 425.444 67.576C425.724 67.856 426.116 68.024 426.62 68.024C427.684 68.024 428.188 67.352 428.412 66.512C428.58 66.064 428.636 65.56 428.636 64.944V61.584ZM424.548 49.544V53.856H428.636V49.544C428.636 48.368 428.412 47.528 427.852 46.856C427.572 46.576 427.124 46.408 426.62 46.408C425.556 46.408 425.108 47.136 424.828 47.976C424.66 48.424 424.604 48.928 424.548 49.544ZM452.059 31.4V72.56H446.403V70.544C445.451 71.44 444.611 72.112 443.547 72.616C442.987 72.896 442.427 73.008 441.923 73.008C440.355 73.008 439.291 72.112 438.619 70.936C437.891 69.816 437.555 68.304 437.555 67.016V47.472C437.555 46.184 437.891 44.672 438.619 43.496C439.291 42.376 440.355 41.48 441.923 41.48C442.987 41.48 444.107 42.096 444.947 42.712C445.451 43.104 445.899 43.496 446.403 43.944V31.4H452.059ZM446.403 65.84V48.648C446.403 47.752 445.563 46.8 444.723 46.8C443.883 46.8 443.211 47.584 443.211 48.648V65.84C443.211 66.904 443.883 67.688 444.723 67.688C445.563 67.688 446.403 66.904 446.403 65.84ZM456.537 37.056V31.4H462.193V37.056H456.537ZM462.193 72.56H456.537V41.928H462.193V72.56ZM482.39 46.184H476.342V39.856C476.342 38.736 476.118 37.952 475.558 37.28C475.278 37 474.83 36.832 474.326 36.832C473.262 36.832 472.758 37.616 472.534 38.344C472.366 38.792 472.31 39.296 472.31 39.856V64.608C472.31 65.784 472.59 66.568 473.15 67.184C473.43 67.464 473.822 67.632 474.326 67.632C475.39 67.632 475.894 66.96 476.118 66.12C476.286 65.728 476.342 65.224 476.342 64.608V57.16H473.934V52.064H482.39V72.56H478.806L478.078 70.6C476.958 72 475.334 73.008 473.374 73.008C471.414 73.008 470.07 72.504 469.062 71.608C468.054 70.768 467.382 69.704 466.934 68.584C466.43 67.296 466.206 65.784 466.262 64.104V39.856C466.318 38.232 466.654 36.72 467.27 35.432C467.774 34.312 468.502 33.192 469.622 32.352C470.742 31.512 472.31 30.952 474.326 30.952C476.342 30.952 477.854 31.512 478.974 32.352C480.094 33.192 480.878 34.312 481.382 35.432C481.998 36.72 482.334 38.232 482.39 39.856V46.184ZM500.833 49.376V65.112C500.665 68.08 499.769 70.152 497.809 71.776C496.801 72.616 495.401 73.008 493.553 73.008C489.913 73.008 488.121 70.992 487.225 68.976C486.721 67.8 486.385 66.456 486.329 64.944V49.544C486.497 46.576 487.393 44.392 489.353 42.712C490.305 41.872 491.705 41.48 493.553 41.48C497.193 41.48 499.041 43.496 499.937 45.456C500.441 46.632 500.777 47.92 500.833 49.376ZM495.513 64.944V49.544C495.569 48.368 495.345 47.528 494.785 46.856C494.505 46.576 494.057 46.408 493.553 46.408C492.489 46.408 492.041 47.136 491.817 47.976C491.649 48.424 491.593 48.928 491.649 49.544V64.944C491.593 66.12 491.873 66.96 492.377 67.576C492.657 67.856 493.049 68.024 493.553 68.024C494.617 68.024 495.121 67.352 495.345 66.512C495.513 66.064 495.569 65.56 495.513 64.944Z" fill="white"/>
<path d="M319.05 24.44V87.52H375.9V24.44H319.05ZM371.84 53.6H367.25V34.04H327.7V77.92H367.25V58.36H371.84V83.01H323.11V28.95H371.84V53.6ZM356.39 65.28V58.02H362.03V72.13H332.92V39.84H362.03V47.23H340.13V65.29H356.39V65.28Z" fill="white"/>
</g>
<defs>
<clipPath id="clip0_608_56">
<rect width="830" height="115" fill="white"/>
</clipPath>
</defs>
</svg>
