<svg width="71" height="20" viewBox="0 0 71 20" fill="none" xmlns="http://www.w3.org/2000/svg">
<rect width="71" height="20" rx="2.5" fill="#1D2024"/>
<rect width="71" height="20" rx="2.5" fill="url(#paint0_linear_621_231)"/>
<g filter="url(#filter0_d_621_231)">
<path d="M26.2884 15V6.9H27.3984V14.02H31.3584V15H26.2884ZM35.0108 15.11C34.5774 15.11 34.1941 15.01 33.8608 14.81C33.5341 14.61 33.2774 14.33 33.0908 13.97C32.9108 13.61 32.8208 13.1967 32.8208 12.73V9H33.9008V12.49C33.9008 13.0033 34.0274 13.4067 34.2808 13.7C34.5341 13.9867 34.8874 14.13 35.3408 14.13C35.8141 14.13 36.1908 13.98 36.4708 13.68C36.7574 13.3733 36.9008 12.9733 36.9008 12.48V9H37.9808V15H36.9108V13.96H36.8708C36.7041 14.3333 36.4608 14.62 36.1408 14.82C35.8208 15.0133 35.4441 15.11 35.0108 15.11ZM42.8583 15.12C42.3249 15.12 41.8449 14.9933 41.4183 14.74C40.9983 14.48 40.6649 14.1167 40.4183 13.65C40.1783 13.1833 40.0583 12.6333 40.0583 12C40.0583 11.36 40.1783 10.8067 40.4183 10.34C40.6649 9.87333 40.9983 9.51333 41.4183 9.26C41.8449 9.00667 42.3249 8.88 42.8583 8.88C43.2783 8.88 43.6616 8.96 44.0083 9.12C44.3616 9.27333 44.6583 9.50667 44.8983 9.82C45.1449 10.1267 45.3149 10.5167 45.4083 10.99H44.2883C44.1949 10.5967 44.0183 10.31 43.7583 10.13C43.5049 9.95 43.2049 9.86 42.8583 9.86C42.3449 9.86 41.9283 10.0533 41.6083 10.44C41.2949 10.8267 41.1383 11.3467 41.1383 12C41.1383 12.6467 41.2949 13.1667 41.6083 13.56C41.9283 13.9467 42.3449 14.14 42.8583 14.14C43.2249 14.14 43.5383 14.0433 43.7983 13.85C44.0649 13.6567 44.2483 13.3433 44.3483 12.91H45.4383C45.3516 13.4033 45.1849 13.8133 44.9383 14.14C44.6916 14.4667 44.3916 14.7133 44.0383 14.88C43.6849 15.04 43.2916 15.12 42.8583 15.12ZM47.2509 15V9H48.3309V15H47.2509ZM47.7909 8.18C47.6043 8.18 47.4443 8.11333 47.3109 7.98C47.1776 7.84667 47.1109 7.68667 47.1109 7.5C47.1109 7.31333 47.1776 7.15333 47.3109 7.02C47.4443 6.88667 47.6043 6.82 47.7909 6.82C47.9776 6.82 48.1376 6.88667 48.2709 7.02C48.4043 7.15333 48.4709 7.31333 48.4709 7.5C48.4709 7.68667 48.4043 7.84667 48.2709 7.98C48.1376 8.11333 47.9776 8.18 47.7909 8.18ZM52.9358 15.12C52.4358 15.12 51.9991 14.99 51.6258 14.73C51.2524 14.47 50.9624 14.1067 50.7558 13.64C50.5491 13.1667 50.4458 12.62 50.4458 12C50.4458 11.3733 50.5491 10.8267 50.7558 10.36C50.9624 9.89333 51.2524 9.53 51.6258 9.27C51.9991 9.01 52.4358 8.88 52.9358 8.88C53.8158 8.88 54.4258 9.24333 54.7658 9.97H54.8058V6.6H55.8858V15H54.8158V14.02H54.7758C54.4291 14.7533 53.8158 15.12 52.9358 15.12ZM53.2258 14.16C53.7258 14.16 54.1124 14.0033 54.3858 13.69C54.6658 13.37 54.8058 12.9533 54.8058 12.44V11.56C54.8058 11.0467 54.6658 10.6333 54.3858 10.32C54.1124 10 53.7258 9.84 53.2258 9.84C52.7124 9.84 52.2991 10.0367 51.9858 10.43C51.6791 10.8233 51.5258 11.3467 51.5258 12C51.5258 12.6533 51.6791 13.1767 51.9858 13.57C52.2991 13.9633 52.7124 14.16 53.2258 14.16Z" fill="#F0F6FC"/>
</g>
<path d="M18.5 13.3984V3L14 5.59813L14.0027 16L18.5 13.3984V15.8394L23 15.8367V10.7976L18.5 13.3984Z" fill="#F0F6FC"/>
<defs>
<filter id="filter0_d_621_231" x="23.2885" y="4.59998" width="35.5973" height="14.52" filterUnits="userSpaceOnUse" color-interpolation-filters="sRGB">
<feFlood flood-opacity="0" result="BackgroundImageFix"/>
<feColorMatrix in="SourceAlpha" type="matrix" values="0 0 0 0 0 0 0 0 0 0 0 0 0 0 0 0 0 0 127 0" result="hardAlpha"/>
<feOffset dy="1"/>
<feGaussianBlur stdDeviation="1.5"/>
<feComposite in2="hardAlpha" operator="out"/>
<feColorMatrix type="matrix" values="0 0 0 0 0.941176 0 0 0 0 0.964706 0 0 0 0 0.988235 0 0 0 0.25 0"/>
<feBlend mode="normal" in2="BackgroundImageFix" result="effect1_dropShadow_621_231"/>
<feBlend mode="normal" in="SourceGraphic" in2="effect1_dropShadow_621_231" result="shape"/>
</filter>
<linearGradient id="paint0_linear_621_231" x1="35.5" y1="-5" x2="35.5" y2="20" gradientUnits="userSpaceOnUse">
<stop offset="0.05" stop-color="#32373E"/>
<stop offset="0.3125" stop-color="#1D2024"/>
<stop offset="0.913462" stop-color="#1D2024"/>
<stop offset="1" stop-color="#32373E" stop-opacity="0.525"/>
</linearGradient>
</defs>
</svg>
