<svg width="60" height="20" viewBox="0 0 60 20" fill="none" xmlns="http://www.w3.org/2000/svg">
<rect width="60" height="20" rx="2.5" fill="#1D2024"/>
<rect width="60" height="20" rx="2.5" fill="#1D2024" fill-opacity="0.2"/>
<path d="M24.5244 15L22.4444 6.9H23.6144L25.1344 13.47H25.1744L26.9344 6.9H28.0344L29.8844 13.47H29.9244L31.4344 6.9H32.6044L30.5244 15H29.3444L27.4944 8.36H27.4544L25.7044 15H24.5244ZM36.057 15.12C35.517 15.12 35.0337 14.9933 34.607 14.74C34.1804 14.48 33.8437 14.1167 33.597 13.65C33.3504 13.1833 33.227 12.6333 33.227 12C33.227 11.36 33.3504 10.8067 33.597 10.34C33.8437 9.87333 34.1804 9.51333 34.607 9.26C35.0337 9.00667 35.517 8.88 36.057 8.88C36.6104 8.88 37.1004 9.00667 37.527 9.26C37.9537 9.51333 38.287 9.87333 38.527 10.34C38.767 10.8067 38.887 11.36 38.887 12C38.887 12.6333 38.7637 13.1867 38.517 13.66C38.277 14.1267 37.9437 14.4867 37.517 14.74C37.0904 14.9933 36.6037 15.12 36.057 15.12ZM36.057 14.14C36.5904 14.14 37.0137 13.9467 37.327 13.56C37.647 13.1667 37.807 12.6467 37.807 12C37.807 11.3467 37.647 10.8267 37.327 10.44C37.0137 10.0533 36.5904 9.86 36.057 9.86C35.5304 9.86 35.107 10.0533 34.787 10.44C34.467 10.8267 34.307 11.3467 34.307 12C34.307 12.6467 34.467 13.1667 34.787 13.56C35.107 13.9467 35.5304 14.14 36.057 14.14ZM41.0739 15V9H42.1039V10.2H42.1439C42.2772 9.82667 42.4939 9.52667 42.7939 9.3C43.1006 9.06667 43.4739 8.95 43.9139 8.95H44.3539V9.91H43.8539C43.3006 9.91 42.8772 10.0867 42.5839 10.44C42.2972 10.7933 42.1539 11.27 42.1539 11.87V15H41.0739ZM48.0498 15.12C47.5498 15.12 47.1132 14.99 46.7398 14.73C46.3665 14.47 46.0765 14.1067 45.8698 13.64C45.6632 13.1667 45.5598 12.62 45.5598 12C45.5598 11.3733 45.6632 10.8267 45.8698 10.36C46.0765 9.89333 46.3665 9.53 46.7398 9.27C47.1132 9.01 47.5498 8.88 48.0498 8.88C48.9298 8.88 49.5398 9.24333 49.8798 9.97H49.9198V6.6H50.9998V15H49.9298V14.02H49.8898C49.5432 14.7533 48.9298 15.12 48.0498 15.12ZM48.3398 14.16C48.8398 14.16 49.2265 14.0033 49.4998 13.69C49.7798 13.37 49.9198 12.9533 49.9198 12.44V11.56C49.9198 11.0467 49.7798 10.6333 49.4998 10.32C49.2265 10 48.8398 9.84 48.3398 9.84C47.8265 9.84 47.4132 10.0367 47.0998 10.43C46.7932 10.8233 46.6398 11.3467 46.6398 12C46.6398 12.6533 46.7932 13.1767 47.0998 13.57C47.4132 13.9633 47.8265 14.16 48.3398 14.16Z" fill="#F0F6FC"/>
<path d="M20.6026 4.3125H12.2459C12.1775 4.31244 12.1096 4.32588 12.0463 4.35203C11.983 4.37818 11.9255 4.41655 11.8771 4.46494C11.8286 4.51332 11.7901 4.57078 11.7639 4.63403C11.7376 4.69728 11.7241 4.76508 11.724 4.83356V7.15625L16.5667 8.57813L21.125 7.15625V4.83356C21.1249 4.76504 21.1114 4.6972 21.0851 4.63393C21.0588 4.57065 21.0203 4.51317 20.9718 4.46478C20.9233 4.41639 20.8657 4.37803 20.8024 4.3519C20.739 4.32578 20.6711 4.31239 20.6026 4.3125Z" fill="#41A5EE"/>
<path d="M21.125 7.15625H11.724V10L16.5667 10.8531L21.125 10V7.15625Z" fill="#2B7CD3"/>
<path d="M11.724 10V12.8438L16.2819 13.4125L21.125 12.8438V10H11.724Z" fill="#185ABD"/>
<path d="M12.2459 15.6875H20.6022C20.6707 15.6877 20.7387 15.6743 20.8021 15.6482C20.8655 15.6221 20.9231 15.5838 20.9716 15.5354C21.0202 15.487 21.0587 15.4295 21.0851 15.3662C21.1114 15.3029 21.1249 15.235 21.125 15.1664V12.8438H11.724V15.1664C11.7241 15.2349 11.7376 15.3027 11.7639 15.366C11.7901 15.4292 11.8286 15.4867 11.8771 15.5351C11.9255 15.5835 11.983 15.6218 12.0463 15.648C12.1096 15.6741 12.1775 15.6876 12.2459 15.6875Z" fill="#103F91"/>
<path opacity="0.1" d="M15.1899 6.58752H11.724V13.6969H15.1899C15.328 13.6962 15.4602 13.6411 15.558 13.5436C15.6558 13.4461 15.7112 13.3139 15.7122 13.1758V7.10859C15.7112 6.97049 15.6558 6.83835 15.558 6.74082C15.4602 6.64329 15.328 6.58821 15.1899 6.58752Z" fill="black"/>
<path opacity="0.2" d="M14.9051 6.87189H11.724V13.9813H14.9051C15.0432 13.9806 15.1754 13.9255 15.2732 13.828C15.371 13.7304 15.4264 13.5983 15.4274 13.4602V7.39295C15.4264 7.25485 15.371 7.12272 15.2732 7.02518C15.1754 6.92765 15.0432 6.87257 14.9051 6.87189Z" fill="black"/>
<path opacity="0.2" d="M14.9051 6.87189H11.724V13.4125H14.9051C15.0432 13.4118 15.1754 13.3567 15.2732 13.2592C15.371 13.1617 15.4264 13.0296 15.4274 12.8914V7.39295C15.4264 7.25485 15.371 7.12272 15.2732 7.02518C15.1754 6.92765 15.0432 6.87257 14.9051 6.87189Z" fill="black"/>
<path opacity="0.2" d="M14.6202 6.87189H11.724V13.4125H14.6202C14.7584 13.4118 14.8906 13.3567 14.9884 13.2592C15.0862 13.1617 15.1416 13.0296 15.1426 12.8914V7.39295C15.1416 7.25485 15.0862 7.12272 14.9884 7.02518C14.8906 6.92765 14.7584 6.87257 14.6202 6.87189Z" fill="black"/>
<path d="M9.39738 6.87189H14.6203C14.7586 6.87177 14.8913 6.92659 14.9893 7.0243C15.0872 7.122 15.1424 7.2546 15.1426 7.39295V12.6071C15.1424 12.7454 15.0872 12.878 14.9893 12.9757C14.8913 13.0734 14.7586 13.1283 14.6203 13.1281H9.39738C9.32885 13.1283 9.26098 13.1149 9.19764 13.0887C9.13429 13.0626 9.07672 13.0242 9.02821 12.9759C8.9797 12.9275 8.94119 12.87 8.91491 12.8067C8.88862 12.7434 8.87506 12.6756 8.875 12.6071V7.39295C8.87506 7.32443 8.88862 7.25659 8.91491 7.19331C8.94119 7.13004 8.9797 7.07256 9.02821 7.02417C9.07672 6.97578 9.13429 6.93742 9.19764 6.91129C9.26098 6.88516 9.32885 6.87177 9.39738 6.87189Z" fill="url(#paint0_linear_621_246)"/>
<path d="M11.0188 10.8697C11.0288 10.9502 11.0358 11.0202 11.0389 11.0802H11.0511C11.0555 11.0233 11.0651 10.9546 11.0796 10.8746C11.094 10.7945 11.1067 10.7267 11.1185 10.6711L11.6676 8.30555H12.3781L12.9468 10.6357C12.9799 10.7798 13.0036 10.926 13.0177 11.0732H13.0273C13.0378 10.9299 13.0575 10.7874 13.0864 10.6466L13.5409 8.30249H14.1871L13.3891 11.6922H12.6336L12.0924 9.44962C12.0766 9.38487 12.0588 9.30057 12.039 9.19674C12.0192 9.09291 12.0069 9.01707 12.0023 8.96924H11.9931C11.9869 9.02437 11.9747 9.10618 11.9563 9.21468C11.9379 9.32362 11.9235 9.40368 11.9126 9.45618L11.4038 11.6936H10.6355L9.83313 8.30555H10.4894L10.9842 10.6759C10.999 10.7399 11.0105 10.8046 11.0188 10.8697Z" fill="white"/>
<defs>
<linearGradient id="paint0_linear_621_246" x1="9.96613" y1="6.46239" x2="14.0515" y2="13.5376" gradientUnits="userSpaceOnUse">
<stop stop-color="#2368C4"/>
<stop offset="0.5" stop-color="#1A5DBE"/>
<stop offset="1" stop-color="#1146AC"/>
</linearGradient>
</defs>
</svg>
